<?xml version="1.0" encoding="utf-8"?>
<!-- Generator: Adobe Illustrator 21.0.1, SVG Export Plug-In . SVG Version: 6.00 Build 0)  -->
<svg version="1.1"
	 id="svg3706" xmlns:cc="http://creativecommons.org/ns#" xmlns:dc="http://purl.org/dc/elements/1.1/" xmlns:rdf="http://www.w3.org/1999/02/22-rdf-syntax-ns#" xmlns:svg="http://www.w3.org/2000/svg"
	 xmlns="http://www.w3.org/2000/svg" xmlns:xlink="http://www.w3.org/1999/xlink" x="0px" y="0px" width="448.5px" height="50px"
	 viewBox="0 0 448.5 50" style="enable-background:new 0 0 448.5 50;" xml:space="preserve">
<style type="text/css">
	.st0{fill:#6F003B;}
</style>
<g id="Background_xA0_Image_1_">
</g>
<g id="g4490">
	<g id="text3737">
		<path id="path4492" class="st0" d="M12.4,41.4v-13c8.9-0.6,14,0.2,14,6.4c0,6.9-5.3,6.6-8.1,6.6H12.4z M21.1,48.6
			c8.3,0,14.7-5.3,14.7-13.1c0-4.6-2.5-8.5-6.6-10.5c3.7-2.1,5.7-5.2,5.7-9.4C35,8.2,31.2,3,16.4,3H3.3v45.6H21.1z M12.4,10.2
			c6.5,0,13.1-0.7,13.1,5.8c0,6.3-6.4,5.5-13.1,5.5L12.4,10.2z"/>
		<path id="path4494" class="st0" d="M59.1,3h-9.2v45.6h28.2v-7.7h-19L59.1,3z"/>
		<path id="path4496" class="st0" d="M109.2,2.3c-13,0-18.8,12-18.8,23.5s5.8,23.5,18.8,23.5s18.8-12,18.8-23.5S122.3,2.3,109.2,2.3
			z M109.2,9.5c7.9,0,9.4,10.4,9.4,16.3s-1.6,16.3-9.4,16.3c-7.9,0-9.4-10.4-9.4-16.3S101.4,9.5,109.2,9.5z"/>
		<path id="path4498" class="st0" d="M168.1,32.9c0.4,5.2-0.9,9.2-8,9.2c-7.9,0-9.4-10.4-9.4-16.3s1.6-16.3,9.4-16.3
			c5.7,0,7.9,3.8,8.6,8.2l8.2-1.2c-0.9-8.7-7.9-14.1-16.8-14.1c-13,0-18.8,12-18.8,23.5s5.8,23.5,18.8,23.5c3.1,0,7-1.1,9.6-3.9
			l0.9,3.2h6.4V25.7h-16.7v7.2H168.1z"/>
		<path id="path4500" class="st0" d="M218.9,3v45.6h4.8V28.1h7c12.4,0,15.7-7,15.7-12.6c0-5.3-3.6-12.5-15-12.5L218.9,3z M223.7,7.1
			h3.3c6.3,0,14.5-0.2,14.5,8.4c0,8.2-7.6,8.4-13.9,8.4h-4L223.7,7.1z"/>
		<path id="path4502" class="st0" d="M276.2,2.1c-9.5,0-16.5,8.7-16.5,23.8s7,23.8,16.5,23.8s16.5-8.7,16.5-23.8
			S285.7,2.1,276.2,2.1z M276.2,6c6.3,0,11.7,6,11.7,19.8s-5.4,19.8-11.7,19.8s-11.7-6-11.7-19.8S269.8,6,276.2,6z"/>
		<path id="path4504" class="st0" d="M335.6,14c-1.7-6.6-6.3-11.9-13.6-11.9c-7.3,0-13.1,4.9-13.1,12.4c0,15.3,22.2,10,22.2,22.7
			c0,4.9-4,8.4-8.7,8.4c-5.7,0-9.9-4.7-11-10.1l-4.6,1.1c1.6,7.9,7.4,12.9,15.5,12.9c7.7,0,13.6-4.9,13.6-12.9
			c0-16-22.2-11.5-22.2-22.9c0-4.5,3.9-7.8,8-7.8c5.9,0,8,4.2,9.5,9.3L335.6,14z"/>
		<path id="path4506" class="st0" d="M377.7,3h-29.3v4.1h12.3v41.5h4.8V7.1h12.3L377.7,3z"/>
		<path id="path4508" class="st0" d="M418.9,14c-1.7-6.6-6.3-11.9-13.6-11.9c-7.3,0-13.1,4.9-13.1,12.4c0,15.3,22.2,10,22.2,22.7
			c0,4.9-4,8.4-8.7,8.4c-5.7,0-9.9-4.7-11-10.1l-4.6,1.1c1.6,7.9,7.4,12.9,15.5,12.9c7.7,0,13.6-4.9,13.6-12.9
			c0-16-22.2-11.5-22.2-22.9c0-4.5,3.9-7.8,8-7.8c5.9,0,8,4.2,9.5,9.3L418.9,14z"/>
	</g>
</g>
</svg>
