<?xml version="1.0" encoding="utf-8"?>
<!-- Generator: Adobe Illustrator 19.2.1, SVG Export Plug-In . SVG Version: 6.00 Build 0)  -->
<svg version="1.1" xmlns="http://www.w3.org/2000/svg" xmlns:xlink="http://www.w3.org/1999/xlink" x="0px" y="0px"
	 viewBox="0 0 763.5 138" style="enable-background:new 0 0 763.5 138;" xml:space="preserve">
<style type="text/css">
	.st0{fill:#E9E9E9;}
	.st1{fill:#B4B4B4;}
</style>
<g id="Background_xA0_Image_1_">
</g>
<g id="july_9_x2C__2013__x2022__jewish_museum_berlin__x2022__international_conference_1_">
	<g>
		<path class="st0" d="M36.048,25.291c-3.414,0-4.562-2.528-4.786-5.952l3.414-0.704c0.191,2.624,0.542,3.36,1.436,3.36
			c0.83,0,1.148-0.704,1.148-2.688V2.541h3.605V19.02C40.866,23.339,39.239,25.291,36.048,25.291z"/>
		<path class="st0" d="M49.091,25.291c-3.223,0-5.009-2.24-5.009-5.855V2.541h3.573v16.927c0,1.856,0.511,2.528,1.5,2.528
			c1.053,0,1.436-0.672,1.436-2.496V2.541h3.573v16.671C54.164,23.115,52.568,25.291,49.091,25.291z"/>
		<path class="st0" d="M57.942,24.939V2.541h3.574v19.071h4.244v3.328H57.942z"/>
		<path class="st0" d="M73.09,15.468v9.471h-3.605v-9.312L65.528,2.541h3.893l0.925,4.256c0.447,2.112,0.798,3.968,0.989,5.631
			c0.16-1.664,0.479-3.52,0.894-5.631l0.861-4.256h3.733L73.09,15.468z"/>
		<path class="st0" d="M88.984,25.451l-2.074-2.624c2.744-1.856,4.467-4.704,4.945-7.744c-0.511,0.736-1.244,1.28-2.233,1.28
			c-2.648,0-4.02-2.784-4.02-6.912c0-4.479,1.787-7.264,5.009-7.264c2.999,0,4.722,2.624,4.722,7.68
			C95.333,18.571,92.461,22.795,88.984,25.451z M90.547,5.356c-1.021,0-1.5,1.28-1.5,3.904c0,2.432,0.415,3.968,1.436,3.968
			c1.117,0,1.468-1.376,1.468-4.096C91.951,6.541,91.409,5.356,90.547,5.356z"/>
		<path class="st0" d="M99.952,28.299h-2.074l0.447-7.136h3.669L99.952,28.299z"/>
		<path class="st0" d="M112.091,24.939c0.223-6.624,1.18-8.863,4.052-12.511c1.276-1.6,1.819-3.104,1.819-4.704
			c0-1.632-0.224-2.304-1.021-2.304c-0.861,0-1.149,0.736-1.404,3.168l-3.382-0.48c0.351-3.52,1.468-5.92,4.85-5.92
			c3.063,0,4.371,2.336,4.371,5.44c0,2.208-0.734,4.224-2.521,6.559c-2.265,2.944-2.999,4.8-3.095,7.52h5.647v3.232H112.091z"/>
		<path class="st0" d="M128.93,25.291c-3.797,0-4.945-3.872-4.945-11.487c0-7.647,1.148-11.615,4.977-11.615
			c3.861,0,5.009,4,5.009,11.487C133.971,21.323,132.822,25.291,128.93,25.291z M128.93,5.452c-1.053,0-1.372,1.344-1.372,8.224
			c0,7.104,0.351,8.352,1.436,8.352c1.084,0,1.436-1.248,1.436-8.224C130.429,6.796,130.015,5.452,128.93,5.452z"/>
		<path class="st0" d="M138.504,24.939V7.116h-2.202V4.908c1.723-0.224,2.489-0.864,2.808-2.368h2.935v22.398H138.504z"/>
		<path class="st0" d="M150.174,25.291c-3.159,0-4.467-2.432-4.722-5.888l3.382-0.448c0.159,2.176,0.415,3.104,1.404,3.104
			c1.021,0,1.372-1.024,1.372-3.456c0-3.2-0.447-4-2.489-4h-0.734v-3.136h0.83c1.723,0,2.202-0.896,2.202-3.968
			c0-1.439-0.255-2.08-1.181-2.08c-0.894,0-1.149,0.8-1.436,2.944l-3.286-0.448c0.415-3.392,1.595-5.728,4.818-5.728
			c2.967,0,4.562,2.144,4.562,5.216c0,3.328-0.894,4.832-2.552,5.408c1.563,0.544,2.744,1.44,2.744,5.536
			C155.087,22.667,153.364,25.291,150.174,25.291z"/>
		<path class="st0" d="M168.642,16.939c-2.074,0-3.701-1.632-3.701-3.711c0-2.112,1.627-3.776,3.701-3.776
			c2.105,0,3.733,1.664,3.733,3.776C172.375,15.308,170.747,16.939,168.642,16.939z"/>
		<path class="st0" d="M187.013,25.291c-3.414,0-4.562-2.528-4.786-5.952l3.414-0.704c0.191,2.624,0.542,3.36,1.436,3.36
			c0.83,0,1.148-0.704,1.148-2.688V2.541h3.605V19.02C191.831,23.339,190.204,25.291,187.013,25.291z"/>
		<path class="st0" d="M195.11,24.939V2.541h8.36v3.328h-4.786v5.6h3.669v3.328h-3.669v6.815h5.073v3.328H195.11z"/>
		<path class="st0" d="M217.756,24.939h-2.999l-0.798-5.919c-0.319-2.304-0.638-5.312-0.797-7.2
			c-0.128,1.888-0.447,4.864-0.766,7.167l-0.83,5.952h-3l-2.648-22.398h3.286l0.734,7.328c0.191,1.792,0.351,4.543,0.447,6.655
			c0.16-2.112,0.415-4.863,0.606-6.655l0.798-7.328h2.744l0.83,7.328c0.191,1.792,0.446,4.543,0.606,6.655
			c0.096-2.112,0.287-4.863,0.447-6.655l0.702-7.328h3.318L217.756,24.939z"/>
		<path class="st0" d="M222.769,24.939V2.541h3.574v22.398H222.769z"/>
		<path class="st0" d="M234.715,25.291c-3.191,0-4.626-2.24-4.945-6.048l3.414-0.608c0.255,2.72,0.734,3.392,1.532,3.392
			c0.893,0,1.276-0.576,1.276-2.016c0-2.144-0.67-3.136-2.68-5.375c-2.266-2.304-3.382-4.416-3.382-6.976
			c0-3.136,1.532-5.472,4.595-5.472c3.126,0,4.371,2.112,4.786,5.408l-3.35,0.704c-0.255-2.208-0.638-2.88-1.436-2.88
			c-0.766,0-1.149,0.544-1.149,1.952c0,1.568,0.542,2.496,2.297,4.384c2.584,2.624,3.797,4.864,3.797,7.936
			C239.469,22.987,237.746,25.291,234.715,25.291z"/>
		<path class="st0" d="M248.81,24.939V14.667h-2.936v10.271h-3.574V2.541h3.574v8.799h2.936V2.541h3.573v22.398H248.81z"/>
		<path class="st0" d="M272.085,24.939v-5.855c0-2.72,0.096-5.312,0.16-7.616c-0.319,1.76-1.021,5.088-1.595,7.36l-1.595,6.783
			l-1.563-6.783c-0.542-2.176-1.244-5.664-1.563-7.36c0.032,2.112,0.16,4.992,0.16,7.616v5.855h-3.191V2.541h3.51l1.468,6.815
			c0.479,2.016,0.989,4.608,1.181,6.432c0.191-1.824,0.734-4.448,1.212-6.463l1.5-6.784h3.51v22.398H272.085z"/>
		<path class="st0" d="M283.639,25.291c-3.223,0-5.009-2.24-5.009-5.855V2.541h3.573v16.927c0,1.856,0.511,2.528,1.5,2.528
			c1.053,0,1.436-0.672,1.436-2.496V2.541h3.573v16.671C288.712,23.115,287.117,25.291,283.639,25.291z"/>
		<path class="st0" d="M296.703,25.291c-3.191,0-4.626-2.24-4.945-6.048l3.414-0.608c0.255,2.72,0.734,3.392,1.532,3.392
			c0.893,0,1.276-0.576,1.276-2.016c0-2.144-0.67-3.136-2.68-5.375c-2.266-2.304-3.382-4.416-3.382-6.976
			c0-3.136,1.532-5.472,4.595-5.472c3.126,0,4.371,2.112,4.786,5.408l-3.35,0.704c-0.255-2.208-0.638-2.88-1.436-2.88
			c-0.766,0-1.149,0.544-1.149,1.952c0,1.568,0.542,2.496,2.297,4.384c2.584,2.624,3.797,4.864,3.797,7.936
			C301.457,22.987,299.734,25.291,296.703,25.291z"/>
		<path class="st0" d="M304.289,24.939V2.541h8.36v3.328h-4.786v5.6h3.669v3.328h-3.669v6.815h5.073v3.328H304.289z"/>
		<path class="st0" d="M321.032,25.291c-3.223,0-5.009-2.24-5.009-5.855V2.541h3.573v16.927c0,1.856,0.511,2.528,1.5,2.528
			c1.053,0,1.436-0.672,1.436-2.496V2.541h3.573v16.671C326.105,23.115,324.51,25.291,321.032,25.291z"/>
		<path class="st0" d="M339.073,24.939v-5.855c0-2.72,0.096-5.312,0.16-7.616c-0.319,1.76-1.021,5.088-1.595,7.36l-1.595,6.783
			l-1.563-6.783c-0.542-2.176-1.244-5.664-1.563-7.36c0.032,2.112,0.16,4.992,0.16,7.616v5.855h-3.191V2.541h3.51l1.468,6.815
			c0.479,2.016,0.989,4.608,1.181,6.432c0.191-1.824,0.734-4.448,1.212-6.463l1.5-6.784h3.51v22.398H339.073z"/>
		<path class="st0" d="M356.723,24.939h-4.244V2.541h4.308c3.286,0,5.201,1.888,5.201,5.983c0,2.464-0.894,3.936-2.489,4.768
			c1.627,0.8,2.68,2.208,2.68,5.087C362.179,22.507,360.393,24.939,356.723,24.939z M356.659,5.581h-0.733v6.271h0.766
			c1.117,0,1.755-0.864,1.755-3.232C358.446,6.348,357.872,5.581,356.659,5.581z M356.563,14.796h-0.638v7.104h0.766
			c1.404,0,1.914-0.992,1.914-3.488C358.605,15.788,358.031,14.796,356.563,14.796z"/>
		<path class="st0" d="M365.277,24.939V2.541h8.36v3.328h-4.786v5.6h3.669v3.328h-3.669v6.815h5.073v3.328H365.277z"/>
		<path class="st0" d="M383.36,24.939l-1.851-9.855h-0.893v9.855h-3.542V2.541h4.659c2.775,0,5.041,1.504,5.041,6.176
			c0,2.592-0.733,4.352-1.979,5.343l2.202,10.879H383.36z M381.446,5.581h-0.83v6.559h0.734c1.212,0,1.818-0.896,1.818-3.264
			C383.169,6.412,382.69,5.581,381.446,5.581z"/>
		<path class="st0" d="M389.873,24.939V2.541h3.573v19.071h4.244v3.328H389.873z"/>
		<path class="st0" d="M400.734,24.939V2.541h3.573v22.398H400.734z"/>
		<path class="st0" d="M415.838,24.939l-2.169-6.879c-0.67-2.208-1.563-5.344-1.979-7.008c0.032,1.632,0.096,4.672,0.096,6.656
			v7.231h-3.318V2.541h3.223l1.755,5.472c0.606,1.824,1.468,4.736,1.883,6.432c-0.032-1.536-0.096-4.608-0.096-6.271V2.541h3.318
			v22.398H415.838z"/>
		<path class="st0" d="M432.988,16.939c-2.074,0-3.701-1.632-3.701-3.711c0-2.112,1.627-3.776,3.701-3.776
			c2.105,0,3.732,1.664,3.732,3.776C436.721,15.308,435.094,16.939,432.988,16.939z"/>
		<path class="st0" d="M447.724,24.939V2.541h3.573v22.398H447.724z"/>
		<path class="st0" d="M462.827,24.939l-2.169-6.879c-0.67-2.208-1.563-5.344-1.979-7.008c0.032,1.632,0.096,4.672,0.096,6.656
			v7.231h-3.318V2.541h3.223l1.755,5.472c0.606,1.824,1.468,4.736,1.883,6.432c-0.032-1.536-0.096-4.608-0.096-6.271V2.541h3.318
			v22.398H462.827z"/>
		<path class="st0" d="M474.839,5.868v19.071h-3.573V5.868h-3V2.541h9.604v3.328H474.839z"/>
		<path class="st0" d="M480.052,24.939V2.541h8.359v3.328h-4.786v5.6h3.67v3.328h-3.67v6.815h5.073v3.328H480.052z"/>
		<path class="st0" d="M498.136,24.939l-1.851-9.855h-0.894v9.855h-3.542V2.541h4.658c2.776,0,5.041,1.504,5.041,6.176
			c0,2.592-0.733,4.352-1.978,5.343l2.201,10.879H498.136z M496.221,5.581h-0.829v6.559h0.733c1.213,0,1.819-0.896,1.819-3.264
			C497.944,6.412,497.465,5.581,496.221,5.581z"/>
		<path class="st0" d="M512.018,24.939l-2.169-6.879c-0.67-2.208-1.563-5.344-1.979-7.008c0.032,1.632,0.096,4.672,0.096,6.656
			v7.231h-3.318V2.541h3.223l1.755,5.472c0.606,1.824,1.468,4.736,1.883,6.432c-0.032-1.536-0.096-4.608-0.096-6.271V2.541h3.318
			v22.398H512.018z"/>
		<path class="st0" d="M524.763,24.939l-0.606-4.928h-2.616l-0.574,4.928h-3.541l3.541-22.398h3.829l3.542,22.398H524.763z
			 M523.295,12.684c-0.191-1.6-0.414-3.424-0.51-5.184c-0.064,1.76-0.287,3.616-0.479,5.216l-0.479,4.064h1.979L523.295,12.684z"/>
		<path class="st0" d="M535.827,5.868v19.071h-3.573V5.868h-3V2.541h9.604v3.328H535.827z"/>
		<path class="st0" d="M541.104,24.939V2.541h3.573v22.398H541.104z"/>
		<path class="st0" d="M553.496,25.291c-3.924,0-5.137-3.744-5.137-11.487c0-7.808,1.244-11.615,5.201-11.615
			c3.956,0,5.232,3.84,5.232,11.487C558.793,21.483,557.517,25.291,553.496,25.291z M553.528,5.484c-1.181,0-1.5,1.408-1.5,8.191
			c0,6.848,0.415,8.319,1.532,8.319c1.148,0,1.531-1.408,1.531-8.191C555.092,6.956,554.677,5.484,553.528,5.484z"/>
		<path class="st0" d="M569.006,24.939l-2.169-6.879c-0.67-2.208-1.563-5.344-1.979-7.008c0.032,1.632,0.096,4.672,0.096,6.656
			v7.231h-3.318V2.541h3.223l1.755,5.472c0.606,1.824,1.468,4.736,1.883,6.432c-0.032-1.536-0.096-4.608-0.096-6.271V2.541h3.318
			v22.398H569.006z"/>
		<path class="st0" d="M581.751,24.939l-0.606-4.928h-2.616l-0.574,4.928h-3.541l3.541-22.398h3.829l3.542,22.398H581.751z
			 M580.283,12.684c-0.191-1.6-0.414-3.424-0.51-5.184c-0.064,1.76-0.287,3.616-0.479,5.216l-0.479,4.064h1.979L580.283,12.684z"/>
		<path class="st0" d="M588.231,24.939V2.541h3.573v19.071h4.244v3.328H588.231z"/>
		<path class="st0" d="M610.484,25.291c-3.797,0-5.137-3.488-5.137-11.487c0-7.967,1.276-11.615,5.201-11.615
			c3.478,0,4.626,2.816,4.817,6.815l-3.51,0.512c-0.223-2.976-0.415-4.032-1.34-4.032c-1.117,0-1.5,1.248-1.5,8.191
			c0,6.976,0.415,8.319,1.596,8.319c0.798,0,1.053-0.736,1.372-3.936l3.445,0.512C614.951,22.859,613.931,25.291,610.484,25.291z"/>
		<path class="st0" d="M623.282,25.291c-3.924,0-5.137-3.744-5.137-11.487c0-7.808,1.244-11.615,5.201-11.615
			c3.956,0,5.232,3.84,5.232,11.487C628.579,21.483,627.303,25.291,623.282,25.291z M623.314,5.484c-1.181,0-1.5,1.408-1.5,8.191
			c0,6.848,0.415,8.319,1.532,8.319c1.148,0,1.531-1.408,1.531-8.191C624.878,6.956,624.463,5.484,623.314,5.484z"/>
		<path class="st0" d="M638.792,24.939l-2.169-6.879c-0.67-2.208-1.563-5.344-1.979-7.008c0.032,1.632,0.096,4.672,0.096,6.656
			v7.231h-3.318V2.541h3.223l1.755,5.472c0.606,1.824,1.468,4.736,1.883,6.432c-0.032-1.536-0.096-4.608-0.096-6.271V2.541h3.318
			v22.398H638.792z"/>
		<path class="st0" d="M648.793,5.868v5.6h3.701v3.328h-3.701v10.143h-3.573V2.541h8.487v3.328H648.793z"/>
		<path class="st0" d="M657.018,24.939V2.541h8.359v3.328h-4.786v5.6h3.67v3.328h-3.67v6.815h5.073v3.328H657.018z"/>
		<path class="st0" d="M675.101,24.939l-1.851-9.855h-0.894v9.855h-3.542V2.541h4.658c2.776,0,5.041,1.504,5.041,6.176
			c0,2.592-0.733,4.352-1.978,5.343l2.201,10.879H675.101z M673.186,5.581h-0.829v6.559h0.733c1.213,0,1.819-0.896,1.819-3.264
			C674.909,6.412,674.43,5.581,673.186,5.581z"/>
		<path class="st0" d="M681.612,24.939V2.541h8.359v3.328h-4.786v5.6h3.67v3.328h-3.67v6.815h5.073v3.328H681.612z"/>
		<path class="st0" d="M700.78,24.939l-2.169-6.879c-0.67-2.208-1.563-5.344-1.979-7.008c0.032,1.632,0.096,4.672,0.096,6.656v7.231
			h-3.318V2.541h3.223l1.755,5.472c0.606,1.824,1.468,4.736,1.883,6.432c-0.032-1.536-0.096-4.608-0.096-6.271V2.541h3.318v22.398
			H700.78z"/>
		<path class="st0" d="M711.866,25.291c-3.797,0-5.137-3.488-5.137-11.487c0-7.967,1.276-11.615,5.201-11.615
			c3.478,0,4.626,2.816,4.817,6.815l-3.51,0.512c-0.223-2.976-0.415-4.032-1.34-4.032c-1.117,0-1.5,1.248-1.5,8.191
			c0,6.976,0.415,8.319,1.596,8.319c0.798,0,1.053-0.736,1.372-3.936l3.445,0.512C716.333,22.859,715.312,25.291,711.866,25.291z"/>
		<path class="st0" d="M720.006,24.939V2.541h8.359v3.328h-4.786v5.6h3.67v3.328h-3.67v6.815h5.073v3.328H720.006z"/>
		<path class="st1" d="M10.979,70.497H8.955v20.442H1.208V41.935h10.26c5.933,0,10.958,3.43,10.958,13.861
			C22.425,66.157,17.33,70.497,10.979,70.497z M10.77,48.585H8.955v15.191h1.605c2.652,0,3.978-2.24,3.978-7.63
			C14.538,50.615,13.491,48.585,10.77,48.585z"/>
		<path class="st1" d="M39.771,91.71c-7.049,0-10.958-4.901-10.958-12.812V41.935h7.817v37.033c0,4.061,1.117,5.531,3.28,5.531
			c2.303,0,3.141-1.471,3.141-5.461V41.935h7.817v36.474C50.868,86.949,47.378,91.71,39.771,91.71z"/>
		<path class="st1" d="M67.98,90.939h-9.283V41.935h9.422c7.188,0,11.376,4.13,11.376,13.091c0,5.39-1.955,8.611-5.444,10.431
			c3.56,1.75,5.863,4.83,5.863,11.131C79.915,85.619,76.006,90.939,67.98,90.939z M67.84,48.585h-1.605v13.722h1.675
			c2.443,0,3.839-1.891,3.839-7.071C71.749,50.265,70.493,48.585,67.84,48.585z M67.631,68.747h-1.396v15.542h1.675
			c3.071,0,4.188-2.171,4.188-7.631C72.098,70.917,70.841,68.747,67.631,68.747z"/>
		<path class="st1" d="M86.442,90.939V41.935h7.817v41.724h9.283v7.281H86.442z"/>
		<path class="st1" d="M109.327,90.939V41.935h7.817v49.005H109.327z"/>
		<path class="st1" d="M135.122,91.71c-8.306,0-11.237-7.631-11.237-25.133c0-17.432,2.792-25.413,11.376-25.413
			c7.607,0,10.12,6.161,10.539,14.912l-7.678,1.12c-0.488-6.511-0.907-8.821-2.931-8.821c-2.443,0-3.28,2.73-3.28,17.922
			c0,15.262,0.907,18.202,3.49,18.202c1.745,0,2.303-1.61,3.001-8.611l7.538,1.12C144.893,86.389,142.66,91.71,135.122,91.71z"/>
		<path class="st1" d="M181.66,90.939V68.467h-6.421v22.473h-7.817V41.935h7.817v19.252h6.421V41.935h7.817v49.005H181.66z"/>
		<path class="st1" d="M197.307,90.939V41.935h7.817v49.005H197.307z"/>
		<path class="st1" d="M222.125,91.71c-6.979,0-10.12-4.901-10.818-13.231l7.468-1.33c0.558,5.95,1.605,7.42,3.35,7.42
			c1.954,0,2.792-1.26,2.792-4.41c0-4.69-1.465-6.86-5.862-11.761c-4.956-5.041-7.398-9.661-7.398-15.262
			c0-6.861,3.35-11.972,10.05-11.972c6.84,0,9.562,4.621,10.469,11.832l-7.328,1.54c-0.559-4.831-1.396-6.301-3.141-6.301
			c-1.675,0-2.512,1.19-2.512,4.271c0,3.43,1.187,5.46,5.025,9.591c5.653,5.74,8.306,10.641,8.306,17.361
			C232.524,86.669,228.755,91.71,222.125,91.71z"/>
		<path class="st1" d="M250.871,49.215v41.725h-7.817V49.215h-6.561v-7.28h21.008v7.28H250.871z"/>
		<path class="st1" d="M272.591,91.71c-8.584,0-11.237-8.191-11.237-25.133c0-17.082,2.722-25.413,11.376-25.413
			s11.446,8.401,11.446,25.133C284.177,83.379,281.385,91.71,272.591,91.71z M272.661,48.375c-2.583,0-3.28,3.08-3.28,17.922
			c0,14.981,0.907,18.202,3.35,18.202c2.513,0,3.35-3.081,3.35-17.922C276.081,51.595,275.174,48.375,272.661,48.375z"/>
		<path class="st1" d="M304.896,90.939l-4.048-21.562h-1.954v21.562h-7.747V41.935h10.19c6.072,0,11.027,3.29,11.027,13.511
			c0,5.67-1.605,9.521-4.327,11.691l4.816,23.803H304.896z M300.708,48.585h-1.815v14.352h1.605c2.652,0,3.978-1.96,3.978-7.141
			C304.477,50.405,303.43,48.585,300.708,48.585z"/>
		<path class="st1" d="M331.78,70.217v20.723h-7.887V70.567l-8.654-28.633h8.515l2.024,9.311c0.977,4.621,1.745,8.681,2.164,12.321
			c0.349-3.64,1.047-7.701,1.954-12.321l1.885-9.311h8.166L331.78,70.217z"/>
		<path class="st1" d="M370.571,91.71c-8.584,0-11.237-8.191-11.237-25.133c0-17.082,2.722-25.413,11.376-25.413
			s11.446,8.401,11.446,25.133C382.156,83.379,379.365,91.71,370.571,91.71z M370.641,48.375c-2.583,0-3.28,3.08-3.28,17.922
			c0,14.981,0.907,18.202,3.35,18.202c2.513,0,3.35-3.081,3.35-17.922C374.061,51.595,373.153,48.375,370.641,48.375z"/>
		<path class="st1" d="M396.943,49.215v12.251h8.096v7.281h-8.096v22.192h-7.817V41.935h18.565v7.28H396.943z"/>
		<path class="st1" d="M440.829,49.215v41.725h-7.816V49.215h-6.561v-7.28h21.008v7.28H440.829z"/>
		<path class="st1" d="M467.599,90.939V68.467h-6.421v22.473h-7.817V41.935h7.817v19.252h6.421V41.935h7.816v49.005H467.599z"/>
		<path class="st1" d="M483.105,90.939V41.935h18.286v7.28h-10.469v12.251h8.026v7.281h-8.026v14.911h11.097v7.281H483.105z"/>
		<path class="st1" d="M536.833,90.939V68.467h-6.421v22.473h-7.817V41.935h7.817v19.252h6.421V41.935h7.816v49.005H536.833z"/>
		<path class="st1" d="M562.53,91.71c-8.585,0-11.237-8.191-11.237-25.133c0-17.082,2.722-25.413,11.376-25.413
			c8.655,0,11.446,8.401,11.446,25.133C574.115,83.379,571.324,91.71,562.53,91.71z M562.6,48.375c-2.582,0-3.28,3.08-3.28,17.922
			c0,14.981,0.907,18.202,3.35,18.202c2.513,0,3.351-3.081,3.351-17.922C566.02,51.595,565.112,48.375,562.6,48.375z"/>
		<path class="st1" d="M581.085,90.939V41.935h7.817v41.724h9.282v7.281H581.085z"/>
		<path class="st1" d="M614.021,91.71c-8.585,0-11.237-8.191-11.237-25.133c0-17.082,2.722-25.413,11.376-25.413
			c8.655,0,11.446,8.401,11.446,25.133C625.605,83.379,622.814,91.71,614.021,91.71z M614.09,48.375c-2.582,0-3.28,3.08-3.28,17.922
			c0,14.981,0.907,18.202,3.35,18.202c2.513,0,3.351-3.081,3.351-17.922C617.51,51.595,616.603,48.375,614.09,48.375z"/>
		<path class="st1" d="M642.765,91.71c-8.306,0-11.237-7.631-11.237-25.133c0-17.432,2.792-25.413,11.376-25.413
			c7.608,0,10.12,6.161,10.539,14.912l-7.677,1.12c-0.489-6.511-0.907-8.821-2.932-8.821c-2.442,0-3.28,2.73-3.28,17.922
			c0,15.262,0.907,18.202,3.489,18.202c1.745,0,2.304-1.61,3.002-8.611l7.537,1.12C652.535,86.389,650.302,91.71,642.765,91.71z"/>
		<path class="st1" d="M674.139,90.939l-1.326-10.781h-5.723l-1.257,10.781h-7.747l7.747-49.005h8.375l7.747,49.005H674.139z
			 M670.928,64.126c-0.418-3.5-0.907-7.491-1.116-11.341c-0.14,3.85-0.628,7.911-1.047,11.411l-1.047,8.891h4.327L670.928,64.126z"
			/>
		<path class="st1" d="M697.883,91.71c-7.05,0-10.958-4.901-10.958-12.812V41.935h7.817v37.033c0,4.061,1.116,5.531,3.28,5.531
			c2.303,0,3.141-1.471,3.141-5.461V41.935h7.816v36.474C708.979,86.949,705.49,91.71,697.883,91.71z"/>
		<path class="st1" d="M726.022,91.71c-6.979,0-10.12-4.901-10.818-13.231l7.468-1.33c0.559,5.95,1.605,7.42,3.351,7.42
			c1.954,0,2.792-1.26,2.792-4.41c0-4.69-1.466-6.86-5.863-11.761c-4.955-5.041-7.397-9.661-7.397-15.262
			c0-6.861,3.35-11.972,10.05-11.972c6.84,0,9.562,4.621,10.469,11.832l-7.328,1.54c-0.559-4.831-1.396-6.301-3.141-6.301
			c-1.675,0-2.513,1.19-2.513,4.271c0,3.43,1.187,5.46,5.025,9.591c5.653,5.74,8.306,10.641,8.306,17.361
			C736.422,86.669,732.652,91.71,726.022,91.71z"/>
		<path class="st1" d="M754.768,49.215v41.725h-7.816V49.215h-6.561v-7.28h21.008v7.28H754.768z"/>
		<path class="st0" d="M118.298,136.939v-13.484h-3.852v13.484h-4.689v-29.405h4.689v11.552h3.852v-11.552h4.689v29.405H118.298z"/>
		<path class="st0" d="M127.887,136.939v-29.405h4.689v29.405H127.887z"/>
		<path class="st0" d="M143.377,137.401c-4.187,0-6.071-2.94-6.49-7.939l4.48-0.798c0.335,3.57,0.963,4.453,2.01,4.453
			c1.172,0,1.675-0.757,1.675-2.646c0-2.814-0.879-4.117-3.517-7.058c-2.973-3.024-4.438-5.797-4.438-9.157
			c0-4.117,2.01-7.184,6.029-7.184c4.104,0,5.736,2.772,6.281,7.1l-4.396,0.924c-0.335-2.898-0.837-3.781-1.884-3.781
			c-1.005,0-1.507,0.715-1.507,2.562c0,2.059,0.712,3.277,3.015,5.756c3.392,3.444,4.982,6.385,4.982,10.417
			C149.615,134.377,147.354,137.401,143.377,137.401z"/>
		<path class="st0" d="M160.224,111.903v25.036h-4.689v-25.036h-3.936v-4.369h12.603v4.369H160.224z"/>
		<path class="st0" d="M173.057,137.401c-5.15,0-6.741-4.915-6.741-15.08c0-10.25,1.633-15.249,6.825-15.249
			s6.867,5.041,6.867,15.08C180.008,132.402,178.333,137.401,173.057,137.401z M173.099,111.398c-1.549,0-1.968,1.849-1.968,10.754
			c0,8.99,0.544,10.923,2.01,10.923c1.507,0,2.01-1.849,2.01-10.754C175.151,113.331,174.606,111.398,173.099,111.398z"/>
		<path class="st0" d="M192.239,136.939l-2.428-12.938h-1.172v12.938h-4.647v-29.405h6.113c3.643,0,6.616,1.975,6.616,8.107
			c0,3.402-0.963,5.713-2.596,7.016l2.889,14.282H192.239z M189.728,111.525h-1.089v8.611h0.963c1.591,0,2.387-1.177,2.387-4.285
			C191.988,112.617,191.36,111.525,189.728,111.525z"/>
		<path class="st0" d="M201.122,136.939v-29.405h4.689v29.405H201.122z"/>
		<path class="st0" d="M217.198,137.401c-4.982,0-6.741-4.579-6.741-15.08c0-10.46,1.675-15.249,6.825-15.249
			c4.564,0,6.071,3.696,6.322,8.947l-4.606,0.672c-0.293-3.906-0.544-5.293-1.758-5.293c-1.465,0-1.968,1.639-1.968,10.754
			c0,9.158,0.544,10.923,2.093,10.923c1.047,0,1.382-0.967,1.801-5.167l4.521,0.672C223.06,134.209,221.72,137.401,217.198,137.401z
			"/>
		<path class="st0" d="M235.422,136.939l-0.795-6.469h-3.433l-0.754,6.469h-4.647l4.647-29.405h5.024l4.647,29.405H235.422z
			 M233.496,120.851c-0.251-2.101-0.544-4.495-0.67-6.806c-0.084,2.311-0.377,4.747-0.628,6.848l-0.628,5.335h2.596L233.496,120.851
			z"/>
		<path class="st0" d="M243.179,136.939v-29.405h4.689v25.036h5.568v4.369H243.179z"/>
		<path class="st0" d="M274.521,136.939l-2.429-12.938h-1.172v12.938h-4.647v-29.405h6.113c3.643,0,6.616,1.975,6.616,8.107
			c0,3.402-0.963,5.713-2.596,7.016l2.889,14.282H274.521z M272.009,111.525h-1.088v8.611h0.963c1.591,0,2.387-1.177,2.387-4.285
			C274.27,112.617,273.642,111.525,272.009,111.525z"/>
		<path class="st0" d="M283.32,136.939v-29.405h10.97v4.369h-6.28v7.351h4.815v4.369h-4.815v8.947h6.657v4.369H283.32z"/>
		<path class="st0" d="M303.894,137.401c-4.187,0-6.071-2.94-6.49-7.939l4.48-0.798c0.335,3.57,0.963,4.453,2.01,4.453
			c1.172,0,1.675-0.757,1.675-2.646c0-2.814-0.879-4.117-3.517-7.058c-2.973-3.024-4.438-5.797-4.438-9.157
			c0-4.117,2.01-7.184,6.029-7.184c4.104,0,5.736,2.772,6.281,7.1l-4.396,0.924c-0.335-2.898-0.837-3.781-1.884-3.781
			c-1.005,0-1.507,0.715-1.507,2.562c0,2.059,0.712,3.277,3.015,5.756c3.392,3.444,4.982,6.385,4.982,10.417
			C310.132,134.377,307.871,137.401,303.894,137.401z"/>
		<path class="st0" d="M314.414,136.939v-29.405h10.97v4.369h-6.28v7.351h4.815v4.369h-4.815v8.947h6.657v4.369H314.414z"/>
		<path class="st0" d="M337.75,136.939l-0.795-6.469h-3.434l-0.753,6.469h-4.647l4.647-29.405h5.024l4.647,29.405H337.75z
			 M335.825,120.851c-0.251-2.101-0.544-4.495-0.67-6.806c-0.084,2.311-0.377,4.747-0.628,6.848l-0.628,5.335h2.596L335.825,120.851
			z"/>
		<path class="st0" d="M353.756,136.939l-2.429-12.938h-1.172v12.938h-4.647v-29.405h6.113c3.643,0,6.616,1.975,6.616,8.107
			c0,3.402-0.963,5.713-2.596,7.016l2.889,14.282H353.756z M351.243,111.525h-1.088v8.611h0.963c1.591,0,2.387-1.177,2.387-4.285
			C353.504,112.617,352.876,111.525,351.243,111.525z"/>
		<path class="st0" d="M368.667,137.401c-4.982,0-6.741-4.579-6.741-15.08c0-10.46,1.675-15.249,6.825-15.249
			c4.563,0,6.071,3.696,6.322,8.947l-4.605,0.672c-0.293-3.906-0.544-5.293-1.759-5.293c-1.465,0-1.968,1.639-1.968,10.754
			c0,9.158,0.544,10.923,2.093,10.923c1.047,0,1.382-0.967,1.8-5.167l4.522,0.672C374.529,134.209,373.189,137.401,368.667,137.401z
			"/>
		<path class="st0" d="M388.143,136.939v-13.484h-3.853v13.484h-4.689v-29.405h4.689v11.552h3.853v-11.552h4.689v29.405H388.143z"/>
		<path class="st0" d="M406.778,136.939v-29.405h4.689v29.405H406.778z"/>
		<path class="st0" d="M426.414,136.939l-2.848-9.031c-0.879-2.898-2.052-7.016-2.596-9.2c0.042,2.143,0.125,6.134,0.125,8.737
			v9.494h-4.354v-29.405h4.229l2.303,7.184c0.795,2.395,1.926,6.217,2.471,8.443c-0.042-2.017-0.126-6.049-0.126-8.233v-7.394h4.354
			v29.405H426.414z"/>
		<path class="st0" d="M451.164,111.903v25.036h-4.689v-25.036h-3.937v-4.369h12.604v4.369H451.164z"/>
		<path class="st0" d="M467.425,136.939v-13.484h-3.853v13.484h-4.689v-29.405h4.689v11.552h3.853v-11.552h4.689v29.405H467.425z"/>
		<path class="st0" d="M476.93,136.939v-29.405H487.9v4.369h-6.281v7.351h4.815v4.369h-4.815v8.947h6.658v4.369H476.93z"/>
		<path class="st0" d="M506.383,136.939h-5.359v-29.405h5.82c5.694,0,7.243,5.377,7.243,14.492
			C514.087,132.108,511.701,136.939,506.383,136.939z M506.467,111.651h-0.795v21.213h0.711c1.885,0,2.89-1.89,2.89-10.796
			C509.272,113.457,508.435,111.651,506.467,111.651z"/>
		<path class="st0" d="M518.154,136.939v-29.405h4.689v29.405H518.154z"/>
		<path class="st0" d="M534.314,137.401c-5.317,0-6.825-5.251-6.825-15.164c0-10.376,1.675-15.165,6.867-15.165
			c4.438,0,5.987,3.57,6.28,8.779l-4.605,0.756c-0.293-3.78-0.545-5.209-1.717-5.209c-1.549,0-2.01,1.723-2.01,10.839
			c0,8.401,0.377,10.88,2.135,10.88c1.382,0,1.927-1.219,1.927-4.453v-2.898h-2.094v-4.117h6.615v6.218
			C540.888,133.033,539.297,137.401,534.314,137.401z"/>
		<path class="st0" d="M545.248,136.939v-29.405h4.689v29.405H545.248z"/>
		<path class="st0" d="M562.539,111.903v25.036h-4.689v-25.036h-3.937v-4.369h12.604v4.369H562.539z"/>
		<path class="st0" d="M576.549,136.939l-0.796-6.469h-3.434l-0.753,6.469h-4.648l4.648-29.405h5.023l4.648,29.405H576.549z
			 M574.622,120.851c-0.251-2.101-0.544-4.495-0.67-6.806c-0.083,2.311-0.376,4.747-0.628,6.848l-0.628,5.335h2.596L574.622,120.851
			z"/>
		<path class="st0" d="M584.305,136.939v-29.405h4.689v25.036h5.569v4.369H584.305z"/>
		<path class="st0" d="M615.689,136.939l-0.796-6.469h-3.434l-0.753,6.469h-4.648l4.648-29.405h5.023l4.648,29.405H615.689z
			 M613.763,120.851c-0.251-2.101-0.544-4.495-0.67-6.806c-0.083,2.311-0.376,4.747-0.628,6.848l-0.628,5.335h2.596L613.763,120.851
			z"/>
		<path class="st0" d="M629.643,137.401c-5.317,0-6.825-5.251-6.825-15.164c0-10.376,1.675-15.165,6.867-15.165
			c4.438,0,5.987,3.57,6.28,8.779l-4.605,0.756c-0.293-3.78-0.545-5.209-1.717-5.209c-1.549,0-2.01,1.723-2.01,10.839
			c0,8.401,0.377,10.88,2.135,10.88c1.382,0,1.927-1.219,1.927-4.453v-2.898h-2.094v-4.117h6.615v6.218
			C636.216,133.033,634.625,137.401,629.643,137.401z"/>
		<path class="st0" d="M640.493,136.939v-29.405h10.971v4.369h-6.281v7.351h4.815v4.369h-4.815v8.947h6.657v4.369H640.493z"/>
	</g>
</g>
</svg>
