<?xml version="1.0" encoding="UTF-8" standalone="no"?>
<svg
   x="0px"
   y="0px"
   width="100"
   height="100"
   viewBox="0,0,256,256"
   version="1.1"
   id="svg8"
   sodipodi:docname="doc2.svg"
   inkscape:version="1.2.2 (b0a8486541, 2022-12-01)"
   xmlns:inkscape="http://www.inkscape.org/namespaces/inkscape"
   xmlns:sodipodi="http://sodipodi.sourceforge.net/DTD/sodipodi-0.dtd"
   xmlns="http://www.w3.org/2000/svg"
   xmlns:svg="http://www.w3.org/2000/svg">
  <defs
     id="defs12" />
  <sodipodi:namedview
     id="namedview10"
     pagecolor="#ffffff"
     bordercolor="#000000"
     borderopacity="0.25"
     inkscape:showpageshadow="2"
     inkscape:pageopacity="0.0"
     inkscape:pagecheckerboard="0"
     inkscape:deskcolor="#d1d1d1"
     showgrid="false"
     inkscape:zoom="10.53"
     inkscape:cx="47.008547"
     inkscape:cy="50.047483"
     inkscape:window-width="3840"
     inkscape:window-height="2083"
     inkscape:window-x="0"
     inkscape:window-y="0"
     inkscape:window-maximized="1"
     inkscape:current-layer="svg8" />
  <g
     fill="#717171"
     fill-rule="nonzero"
     stroke="none"
     stroke-width="1"
     stroke-linecap="butt"
     stroke-linejoin="miter"
     stroke-miterlimit="10"
     stroke-dasharray=""
     stroke-dashoffset="0"
     font-family="none"
     font-weight="none"
     font-size="none"
     text-anchor="none"
     style="mix-blend-mode: normal"
     id="g6">
    <g
       transform="scale(4,4)"
       id="g4"
       style="fill:#717171;fill-opacity:1">
      <path
         d="M23.65625,4c-1.33594,0 -2.58984,0.51953 -3.53516,1.46484l-8.65625,8.65625c-0.94531,0.94531 -1.46484,2.19922 -1.46484,3.53516v39.34375c0,1.65234 1.34766,3 3,3h40c1.65234,0 3,-1.34766 3,-3v-50c0,-1.65234 -1.34766,-3 -3,-3zM24,6h29c0.55078,0 1,0.44922 1,1v50c0,0.55078 -0.44922,1 -1,1h-40c-0.55078,0 -1,-0.44922 -1,-1v-39h9c1.65234,0 3,-1.34766 3,-3zM22,6.5v8.5c0,0.55078 -0.44922,1 -1,1h-8.5c0.10547,-0.16406 0.23438,-0.32031 0.37891,-0.46484l8.65625,-8.65625c0.14453,-0.14062 0.30078,-0.26562 0.46484,-0.37891zM21,22c-0.55078,0 -1,0.44922 -1,1c0,0.55078 0.44922,1 1,1h16c0.55078,0 1,-0.44922 1,-1c0,-0.55078 -0.44922,-1 -1,-1zM41,22c-0.55078,0 -1,0.44922 -1,1c0,0.55078 0.44922,1 1,1h4c0.55078,0 1,-0.44922 1,-1c0,-0.55078 -0.44922,-1 -1,-1zM21,26c-0.55078,0 -1,0.44922 -1,1c0,0.55078 0.44922,1 1,1h20c0.55078,0 1,-0.44922 1,-1c0,-0.55078 -0.44922,-1 -1,-1zM21,32c-0.55078,0 -1,0.44922 -1,1c0,0.55078 0.44922,1 1,1h22c0.55078,0 1,-0.44922 1,-1c0,-0.55078 -0.44922,-1 -1,-1zM21,36c-0.55078,0 -1,0.44922 -1,1c0,0.55078 0.44922,1 1,1h12c0.55078,0 1,-0.44922 1,-1c0,-0.55078 -0.44922,-1 -1,-1zM15,50c-0.55078,0 -1,0.44922 -1,1v2c0,0.55078 0.44922,1 1,1c0.55078,0 1,-0.44922 1,-1v-2c0,-0.55078 -0.44922,-1 -1,-1zM20,50c-0.55078,0 -1,0.44922 -1,1v2c0,0.55078 0.44922,1 1,1c0.55078,0 1,-0.44922 1,-1v-2c0,-0.55078 -0.44922,-1 -1,-1zM25,50c-0.55078,0 -1,0.44922 -1,1v2c0,0.55078 0.44922,1 1,1c0.55078,0 1,-0.44922 1,-1v-2c0,-0.55078 -0.44922,-1 -1,-1zM30,50c-0.55078,0 -1,0.44922 -1,1v2c0,0.55078 0.44922,1 1,1c0.55078,0 1,-0.44922 1,-1v-2c0,-0.55078 -0.44922,-1 -1,-1zM35,50c-0.55078,0 -1,0.44922 -1,1v2c0,0.55078 0.44922,1 1,1c0.55078,0 1,-0.44922 1,-1v-2c0,-0.55078 -0.44922,-1 -1,-1zM40,50c-0.55078,0 -1,0.44922 -1,1v2c0,0.55078 0.44922,1 1,1c0.55078,0 1,-0.44922 1,-1v-2c0,-0.55078 -0.44922,-1 -1,-1zM45,50c-0.55078,0 -1,0.44922 -1,1v2c0,0.55078 0.44922,1 1,1c0.55078,0 1,-0.44922 1,-1v-2c0,-0.55078 -0.44922,-1 -1,-1zM50,50c-0.55078,0 -1,0.44922 -1,1v2c0,0.55078 0.44922,1 1,1c0.55078,0 1,-0.44922 1,-1v-2c0,-0.55078 -0.44922,-1 -1,-1z"
         id="path2"
         style="fill:#717171;fill-opacity:1" />
    </g>
  </g>
  <path
     style="fill:#ffffff;fill-opacity:1;stroke:#000000;stroke-width:0"
     d="m 19.641471,90.397768 c -0.165852,-0.08179 -0.372907,-0.227564 -0.460122,-0.323935 -0.436103,-0.481888 -0.416823,0.955617 -0.421245,-31.408116 l -0.0042,-30.508072 h 7.339972 c 6.284495,0 7.420251,-0.02091 7.898248,-0.145412 1.726462,-0.449687 3.146351,-1.964788 3.462275,-3.694442 0.06802,-0.372415 0.102924,-2.988962 0.102924,-7.716049 V 9.4491928 h 22.801412 c 25.416472,0 23.205555,-0.060932 23.690617,0.6529012 l 0.231618,0.340857 V 50 89.557049 l -0.231618,0.340857 c -0.12739,0.187471 -0.379575,0.411066 -0.560411,0.496878 -0.302955,0.143762 -2.812838,0.155853 -31.938373,0.153861 -28.494658,-0.0019 -31.639295,-0.01682 -31.911128,-0.150877 z m 4.629974,-6.235736 c 0.176235,-0.118763 0.417597,-0.360126 0.536362,-0.536361 0.208127,-0.30884 0.215935,-0.394953 0.215935,-2.381606 0,-1.986654 -0.0078,-2.072767 -0.215935,-2.381607 -0.337663,-0.501057 -0.78082,-0.752297 -1.326967,-0.752297 -0.620938,0 -1.076407,0.22889 -1.385801,0.696416 l -0.252684,0.381831 v 2.055657 2.055656 l 0.25159,0.380176 c 0.313531,0.473778 0.746125,0.693112 1.372543,0.695908 0.34932,0.0016 0.573948,-0.0581 0.804957,-0.213773 z m 7.938361,-0.0466 c 0.541548,-0.385616 0.639793,-0.74612 0.679113,-2.491952 0.05194,-2.306295 -0.0974,-2.888671 -0.850567,-3.316959 -0.738768,-0.420097 -1.645988,-0.184999 -2.145304,0.555936 -0.208081,0.308771 -0.215922,0.395043 -0.21558,2.371909 3.8e-4,1.926476 0.0127,2.071737 0.20289,2.383867 0.194251,0.318788 0.431266,0.537829 0.743228,0.686863 0.301798,0.144177 1.281974,0.02698 1.58622,-0.189664 z m 7.733415,0.04809 c 0.177477,-0.117943 0.420847,-0.406404 0.540822,-0.641026 0.209783,-0.41025 0.217056,-0.501125 0.189933,-2.373402 -0.03124,-2.156258 -0.07764,-2.349692 -0.663755,-2.767045 -0.462315,-0.329197 -1.346187,-0.362285 -1.777367,-0.06654 -0.717493,0.492132 -0.720983,0.506307 -0.720983,2.928547 0,2.418039 0.0053,2.439726 0.711285,2.920227 0.438888,0.298705 1.269986,0.298335 1.720065,-7.59e-4 z m 7.778543,7.6e-4 c 0.705641,-0.480256 0.711284,-0.503352 0.711284,-2.910843 v -2.160922 l -0.266067,-0.348832 c -0.382243,-0.501148 -0.746761,-0.662097 -1.393546,-0.615314 -0.661056,0.04782 -1.093435,0.329842 -1.340821,0.874569 -0.152806,0.336472 -0.177063,0.640895 -0.178867,2.244733 -0.002,1.737814 0.01146,1.882292 0.21159,2.278436 0.30073,0.595288 0.722613,0.851848 1.40076,0.851848 0.405441,0 0.620689,-0.05375 0.855667,-0.213675 z m 7.793746,-0.0023 c 0.176235,-0.118764 0.417597,-0.360127 0.536361,-0.536361 0.208128,-0.308834 0.215935,-0.394947 0.215935,-2.3816 0,-1.986654 -0.0078,-2.072767 -0.215935,-2.381607 -0.336261,-0.498978 -0.781198,-0.752297 -1.32136,-0.752297 -0.602433,0 -1.136362,0.275464 -1.420846,0.73304 -0.216354,0.347994 -0.223245,0.422321 -0.223245,2.407799 v 2.048721 l 0.251589,0.380176 c 0.313531,0.473778 0.746126,0.693112 1.372544,0.695908 0.34932,0.0016 0.573947,-0.0581 0.804957,-0.213773 z m 7.750217,0.05864 c 0.182308,-0.08651 0.445177,-0.329075 0.584153,-0.539033 l 0.252684,-0.38174 v -2.001328 c 0,-1.844997 -0.01549,-2.031002 -0.198329,-2.381196 -0.263651,-0.504979 -0.792155,-0.803612 -1.425804,-0.805655 -0.561538,-0.0018 -0.999289,0.243198 -1.341318,0.750734 -0.208128,0.308847 -0.215935,0.39496 -0.215935,2.381614 0,1.986653 0.0078,2.072766 0.215935,2.381606 0.482017,0.715266 1.358741,0.960334 2.128614,0.595004 z m 7.921559,-0.05715 c 0.177477,-0.117943 0.418839,-0.404775 0.536361,-0.637406 0.200126,-0.396144 0.213543,-0.540622 0.211589,-2.278436 -0.0018,-1.603838 -0.02606,-1.908261 -0.178867,-2.244733 -0.247385,-0.544727 -0.679764,-0.826752 -1.34082,-0.874569 -0.646785,-0.04678 -1.011303,0.114166 -1.393546,0.615314 l -0.266068,0.348832 v 2.160922 c 0,2.407491 0.0056,2.430587 0.711285,2.910843 0.438888,0.298705 1.269987,0.298334 1.720066,-7.6e-4 z m 7.778542,7.6e-4 c 0.706003,-0.480488 0.711285,-0.502175 0.711285,-2.920214 0,-2.42224 -0.0035,-2.436415 -0.720983,-2.928547 -0.435737,-0.298876 -1.314906,-0.262767 -1.787001,0.0734 -0.587017,0.417993 -0.668966,0.766968 -0.671317,2.858771 -0.002,1.737814 0.01146,1.882291 0.21159,2.278436 0.30073,0.595287 0.722612,0.851848 1.400759,0.851848 0.405442,0 0.62069,-0.05375 0.855667,-0.213676 z M 52.438454,59.15556 c 0.46312,-0.343178 0.695449,-0.776386 0.695449,-1.296752 0,-0.620917 -0.228883,-1.076397 -0.696379,-1.385801 l -0.381795,-0.252684 -9.629394,-0.02551 c -6.855794,-0.01816 -9.742627,0.005 -10.022522,0.08035 -0.515451,0.138797 -1.075673,0.698168 -1.162441,1.160674 -0.136979,0.730164 0.194692,1.463645 0.80991,1.791097 0.318989,0.169784 0.731074,0.175913 10.225728,0.1521 9.870396,-0.02475 9.893966,-0.02527 10.161444,-0.223478 z m 15.614929,-6.236098 c 0.177476,-0.117943 0.421781,-0.406405 0.542898,-0.641026 0.282794,-0.547814 0.233316,-1.199495 -0.126931,-1.671802 C 67.967779,49.949039 69.519314,50 50,50 30.480686,50 32.032221,49.94904 31.53065,50.606634 c -0.360247,0.472307 -0.409725,1.123988 -0.126931,1.671802 0.121117,0.234621 0.365422,0.523083 0.542898,0.641026 l 0.322687,0.214441 H 50 67.730696 Z m -3.513898,-9.200189 c 1.254164,-0.419159 1.513871,-2.088505 0.443672,-2.851827 l -0.310792,-0.221672 -16.14435,-0.02454 c -15.582785,-0.02369 -16.155911,-0.0184 -16.476733,0.152099 -0.896827,0.476611 -1.121923,1.713996 -0.445352,2.448168 0.587064,0.637045 -0.536587,0.596902 16.836689,0.601493 11.532737,0.003 15.86085,-0.02484 16.096866,-0.103719 z m -5.989249,-6.373594 c 0.593699,-0.299661 0.869897,-0.801352 0.826868,-1.501937 -0.03904,-0.635675 -0.302438,-1.054133 -0.83431,-1.325474 -0.361315,-0.18433 -0.604564,-0.187784 -13.224929,-0.187784 H 32.461023 l -0.413538,0.218684 c -0.930651,0.492141 -1.122275,1.69691 -0.39377,2.475692 0.521411,0.557397 -0.266869,0.526743 13.649049,0.530777 l 12.824132,0.0037 z m 12.370727,0.08537 c 0.168892,-0.07057 0.442408,-0.282439 0.607814,-0.470827 0.680587,-0.775145 0.441641,-1.987044 -0.47972,-2.433067 -0.388177,-0.187913 -0.560749,-0.196672 -3.87512,-0.196672 -3.437831,0 -3.472548,0.002 -3.882387,0.218684 -0.685133,0.362307 -1.018866,1.223738 -0.749896,1.935628 0.133459,0.353229 0.542229,0.781984 0.896143,0.939956 0.416174,0.185763 7.040304,0.191337 7.483166,0.0063 z"
     id="path920"
     transform="scale(2.56)" />
  <path
     style="fill:#ffffff;fill-opacity:1;stroke:#000000;stroke-width:0"
     d="m 19.791194,24.762583 c 0.05075,-0.0914 3.332168,-3.392687 7.29204,-7.336182 l 7.199767,-7.169991 0.02708,6.60019 c 0.01489,3.630105 0.0025,6.737821 -0.02752,6.906036 -0.03003,0.168216 -0.164829,0.436845 -0.299552,0.596954 -0.50209,0.596701 -0.137909,0.569185 -7.533391,0.569185 -6.401076,0 -6.745919,-0.0086 -6.658424,-0.166192 z"
     id="path7158"
     transform="scale(2.56)" />
</svg>
