<?xml version="1.0" encoding="UTF-8" standalone="no"?>
<svg
   width="155"
   height="124"
   viewBox="0 0 155 124"
   fill="none"
   version="1.1"
   id="svg181"
   sodipodi:docname="ehri-logo-beige.svg"
   inkscape:version="1.2.2 (b0a8486541, 2022-12-01)"
   xmlns:inkscape="http://www.inkscape.org/namespaces/inkscape"
   xmlns:sodipodi="http://sodipodi.sourceforge.net/DTD/sodipodi-0.dtd"
   xmlns="http://www.w3.org/2000/svg"
   xmlns:svg="http://www.w3.org/2000/svg">
  <sodipodi:namedview
     id="namedview183"
     pagecolor="#ffffff"
     bordercolor="#000000"
     borderopacity="0.25"
     inkscape:showpageshadow="2"
     inkscape:pageopacity="0.0"
     inkscape:pagecheckerboard="true"
     inkscape:deskcolor="#d1d1d1"
     showgrid="false"
     inkscape:zoom="8.2822581"
     inkscape:cx="71.357352"
     inkscape:cy="110.23564"
     inkscape:window-width="3840"
     inkscape:window-height="2084"
     inkscape:window-x="0"
     inkscape:window-y="0"
     inkscape:window-maximized="1"
     inkscape:current-layer="svg181" />
  <g
     mask="url(#mask0_200_47)"
     id="g172"
     clip-path="url(#clipPath353)">
    <path
       d="m 115.569,45.1402 c 0.552,-0.5187 0.826,-1.189 0.826,-2.0175 0,-0.8286 -0.277,-1.5056 -0.826,-2.0344 -0.552,-0.5288 -1.263,-0.7916 -2.137,-0.7916 h -4.087 c -0.105,0 -0.156,0.0506 -0.156,0.155 V 45.76 c 0,0.1044 0.051,0.1549 0.156,0.1549 h 4.087 c 0.874,0 1.585,-0.2594 2.137,-0.7747 z m 21.206,12.7587 c 0,0.1044 -0.037,0.192 -0.108,0.2627 -0.075,0.0741 -0.163,0.1078 -0.264,0.1078 h -3.651 c -0.105,0 -0.193,-0.037 -0.264,-0.1078 C 132.414,58.0909 132.38,58 132.38,57.8989 V 36.9151 c 0,-0.1044 0.037,-0.192 0.108,-0.2627 0.071,-0.0708 0.163,-0.1078 0.264,-0.1078 h 3.651 c 0.105,0 0.193,0.037 0.264,0.1078 0.071,0.0741 0.108,0.1616 0.108,0.2627 z m -15.821,0.1246 c 0,0.1651 -0.115,0.2493 -0.342,0.2493 h -3.837 c -0.21,0 -0.356,-0.0943 -0.437,-0.2796 l -3.901,-8.599 c -0.041,-0.0808 -0.105,-0.1246 -0.187,-0.1246 h -2.902 c -0.105,0 -0.156,0.0505 -0.156,0.1549 v 8.4744 c 0,0.1044 -0.037,0.192 -0.108,0.2627 -0.075,0.0741 -0.163,0.1078 -0.264,0.1078 h -3.651 c -0.105,0 -0.193,-0.037 -0.264,-0.1078 C 104.831,58.0909 104.797,58 104.797,57.8989 V 36.9151 c 0,-0.1044 0.037,-0.192 0.108,-0.2627 0.071,-0.0708 0.163,-0.1078 0.264,-0.1078 h 8.927 c 1.331,0 2.503,0.2694 3.512,0.8083 1.009,0.539 1.788,1.3035 2.34,2.2971 0.552,0.9937 0.826,2.1422 0.826,3.4457 0,1.4079 -0.352,2.6137 -1.06,3.6175 -0.708,1.0037 -1.696,1.7144 -2.966,2.1253 -0.105,0.0404 -0.136,0.1145 -0.095,0.2189 l 4.243,8.7843 c 0.041,0.0842 0.061,0.1448 0.061,0.1852 M 93.733,76.4273 c 0,0.4042 -0.1186,0.7242 -0.3488,0.9532 -0.2337,0.2325 -0.552,0.347 -0.9584,0.347 h -13.756 c -0.4063,0 -0.7281,-0.1145 -0.9583,-0.347 -0.2337,-0.229 -0.3489,-0.549 -0.3489,-0.9532 V 54.4364 c 0,-0.2896 -0.1456,-0.4345 -0.4334,-0.4345 H 63.3493 c -0.2912,0 -0.4368,0.1449 -0.4368,0.4345 v 21.9909 c 0,0.4042 -0.1186,0.7242 -0.3489,0.9532 -0.2336,0.2325 -0.552,0.347 -0.9583,0.347 h -13.756 c -0.4064,0 -0.7247,-0.1145 -0.9584,-0.347 -0.2336,-0.229 -0.3488,-0.549 -0.3488,-0.9532 V 18.4102 c 0,-0.4042 0.1152,-0.7208 0.3488,-0.9532 0.2303,-0.229 0.552,-0.3469 0.9584,-0.3469 h 13.756 c 0.4063,0 0.7247,0.1179 0.9583,0.3469 0.2303,0.2324 0.3489,0.549 0.3489,0.9532 v 21.2129 c 0,0.2897 0.1456,0.4345 0.4368,0.4345 h 13.5799 c 0.2878,0 0.4334,-0.1448 0.4334,-0.4345 V 18.4102 c 0,-0.4042 0.1152,-0.7208 0.3489,-0.9532 0.2302,-0.229 0.552,-0.3469 0.9583,-0.3469 h 13.756 c 0.4064,0 0.7247,0.1179 0.9584,0.3469 0.2302,0.2324 0.3488,0.549 0.3488,0.9532 V 76.424 Z M 35.3836,57.9023 c 0,0.1044 -0.0372,0.192 -0.1084,0.2627 -0.0745,0.0741 -0.1625,0.1078 -0.2641,0.1078 H 20.5914 c -0.105,0 -0.193,-0.0371 -0.2642,-0.1078 -0.0745,-0.0707 -0.1083,-0.1617 -0.1083,-0.2627 V 36.9184 c 0,-0.1044 0.0372,-0.1919 0.1083,-0.2627 0.0712,-0.0707 0.1626,-0.1078 0.2642,-0.1078 h 14.4197 c 0.105,0 0.193,0.0371 0.2641,0.1078 0.0712,0.0741 0.1084,0.1617 0.1084,0.2627 v 3.0112 c 0,0.1044 -0.0372,0.192 -0.1084,0.2627 -0.0711,0.0708 -0.1625,0.1078 -0.2641,0.1078 H 24.7737 c -0.105,0 -0.1558,0.0505 -0.1558,0.1549 v 4.8098 c 0,0.1044 0.0508,0.155 0.1558,0.155 h 6.7087 c 0.1049,0 0.193,0.037 0.2641,0.1077 0.0711,0.0741 0.1084,0.1617 0.1084,0.2628 v 3.0111 c 0,0.1044 -0.0373,0.192 -0.1084,0.2627 -0.0745,0.0741 -0.1625,0.1078 -0.2641,0.1078 h -6.7087 c -0.105,0 -0.1558,0.0506 -0.1558,0.155 v 5.0287 c 0,0.1044 0.0508,0.1549 0.1558,0.1549 h 10.2374 c 0.105,0 0.193,0.0371 0.2641,0.1078 0.0712,0.0741 0.1084,0.1617 0.1084,0.2627 v 3.0112 z M 155.005,40.2664 C 153.901,27.4639 153.173,14.6075 152.137,1.80504 145.066,2.0846 137.998,1.6501 130.944,1.11793 123.256,1.08761 115.556,1.39749 107.868,1.44464 97.9526,1.31665 88.0911,-0.242825 78.1652,0.0401036 70.2205,0.225354 62.4587,0.737319 54.558,0.892256 48.7433,1.35707 42.9558,0.962988 37.192,0.966357 c -1.9506,0.138093 -3.9114,-0.454706 -5.8282,0 C 27.4829,0.275877 23.094,0.669956 19.1521,0.528492 12.7618,0.43755 6.38164,0.0569446 0.00486755,0.114204 0.763443,15.6012 1.21385,31.1285 3.80113,46.4302 3.66229,48.441 2.81227,50.4687 2.89694,52.5805 3.18479,56.4102 2.731,60.2263 2.86646,64.0728 c -0.56555,8.6428 0.35219,17.198 1.4799,25.7768 23.44474,1.0677 46.87924,3.4389 70.38154,2.6272 25.9641,-0.6871 51.8951,-3.0786 77.8621,-0.8353 1.054,-17.097 1.585,-34.268 2.405,-51.3852"
       fill="#d5d2b8"
       id="path166"
       style="fill:#ffffff;fill-opacity:1" />
    <path
       d="m 147.782,118.089 c 0.369,0 0.677,0.09 0.924,0.276 0.244,0.185 0.41,0.441 0.495,0.774 0.037,0.122 0.064,0.297 0.084,0.526 0,0.047 -0.023,0.067 -0.067,0.067 H 146.4 c -0.054,0 -0.075,-0.023 -0.054,-0.067 0.017,-0.249 0.054,-0.452 0.112,-0.606 0.091,-0.304 0.25,-0.539 0.477,-0.711 0.227,-0.172 0.511,-0.256 0.853,-0.256 m 3.082,1.465 c -0.23,-1.896 -1.26,-2.846 -3.082,-2.846 -0.721,0 -1.341,0.185 -1.852,0.559 -0.515,0.374 -0.864,0.883 -1.046,1.526 -0.112,0.33 -0.166,0.764 -0.166,1.297 0,0.882 0.105,1.573 0.318,2.071 0.23,0.579 0.599,1.031 1.104,1.354 0.505,0.323 1.118,0.482 1.839,0.482 0.582,0 1.114,-0.111 1.588,-0.33 0.478,-0.223 0.86,-0.536 1.145,-0.94 0.054,-0.084 0.04,-0.155 -0.041,-0.222 l -0.86,-0.704 c -0.027,-0.027 -0.061,-0.041 -0.098,-0.041 -0.054,0 -0.102,0.027 -0.139,0.084 -0.369,0.516 -0.87,0.775 -1.5,0.775 -0.86,-0.01 -1.402,-0.347 -1.626,-1.007 -0.054,-0.111 -0.098,-0.317 -0.125,-0.62 0,-0.047 0.024,-0.067 0.071,-0.067 h 4.345 c 0.112,0 0.166,-0.054 0.166,-0.165 l 0.013,-0.428 c 0,-0.286 -0.017,-0.542 -0.054,-0.775 m -7.762,-2.815 c -0.694,0 -1.236,0.299 -1.625,0.899 -0.017,0.027 -0.034,0.04 -0.048,0.034 -0.013,-0.004 -0.02,-0.024 -0.02,-0.061 v -0.62 c 0,-0.047 -0.017,-0.084 -0.047,-0.118 -0.034,-0.033 -0.071,-0.047 -0.119,-0.047 h -1.277 c -0.047,0 -0.084,0.017 -0.118,0.047 -0.034,0.034 -0.048,0.071 -0.048,0.118 v 6.726 c 0,0.048 0.017,0.085 0.048,0.118 0.034,0.034 0.071,0.048 0.118,0.048 h 1.277 c 0.048,0 0.085,-0.017 0.119,-0.048 0.034,-0.033 0.047,-0.07 0.047,-0.118 v -3.907 c 0,-0.404 0.129,-0.734 0.39,-0.986 0.26,-0.253 0.582,-0.388 0.971,-0.408 0.065,-0.01 0.156,-0.014 0.278,-0.014 0.186,0 0.346,0.024 0.484,0.068 0.122,0.047 0.187,0.013 0.193,-0.098 l 0.237,-1.243 c 0.017,-0.101 -0.01,-0.171 -0.084,-0.205 -0.224,-0.118 -0.481,-0.179 -0.779,-0.179 m -6.624,0.25 v 4.196 c 0,0.431 -0.125,0.778 -0.376,1.034 -0.251,0.26 -0.582,0.388 -0.999,0.388 -0.417,0 -0.725,-0.128 -0.952,-0.388 -0.226,-0.256 -0.338,-0.603 -0.338,-1.034 v -4.196 c 0,-0.048 -0.017,-0.085 -0.048,-0.118 -0.034,-0.034 -0.071,-0.047 -0.118,-0.047 h -1.277 c -0.047,0 -0.085,0.016 -0.118,0.047 -0.034,0.033 -0.048,0.07 -0.048,0.118 v 4.654 c 0,0.745 0.237,1.321 0.715,1.728 0.477,0.404 1.066,0.607 1.771,0.607 0.758,0 1.327,-0.243 1.707,-0.731 0.02,-0.027 0.037,-0.037 0.054,-0.027 0.02,0.01 0.027,0.027 0.027,0.054 v 0.441 c 0,0.047 0.017,0.084 0.047,0.118 0.034,0.033 0.071,0.047 0.119,0.047 h 1.263 c 0.047,0 0.085,-0.017 0.119,-0.047 0.033,-0.034 0.047,-0.071 0.047,-0.118 v -6.726 c 0,-0.048 -0.017,-0.085 -0.047,-0.118 -0.034,-0.034 -0.072,-0.047 -0.119,-0.047 h -1.263 c -0.048,0 -0.085,0.016 -0.119,0.047 -0.034,0.033 -0.047,0.07 -0.047,0.118 z m -5.622,0.966 v -0.966 c 0,-0.048 -0.017,-0.085 -0.047,-0.118 -0.034,-0.034 -0.071,-0.047 -0.119,-0.047 h -1.415 c -0.048,0 -0.071,-0.024 -0.071,-0.068 v -1.617 c 0,-0.047 -0.017,-0.084 -0.048,-0.117 -0.034,-0.034 -0.071,-0.048 -0.118,-0.048 h -1.209 c -0.048,0 -0.085,0.017 -0.119,0.048 -0.034,0.033 -0.047,0.07 -0.047,0.117 v 1.617 c 0,0.047 -0.024,0.068 -0.068,0.068 h -0.792 c -0.048,0 -0.085,0.016 -0.119,0.047 -0.034,0.033 -0.047,0.07 -0.047,0.118 v 0.966 c 0,0.047 0.017,0.084 0.047,0.118 0.031,0.034 0.071,0.047 0.119,0.047 h 0.792 c 0.048,0 0.068,0.024 0.068,0.068 v 3.934 c 0.01,0.69 0.193,1.158 0.555,1.408 0.363,0.249 0.908,0.373 1.639,0.373 l 0.722,-0.013 c 0.111,-0.017 0.166,-0.077 0.166,-0.179 v -1.034 c 0,-0.047 -0.017,-0.084 -0.048,-0.117 -0.03,-0.034 -0.071,-0.048 -0.118,-0.048 h -0.417 c -0.332,0 -0.576,-0.077 -0.728,-0.235 -0.152,-0.155 -0.23,-0.411 -0.23,-0.762 V 118.2 c 0,-0.047 0.023,-0.068 0.071,-0.068 h 1.415 c 0.048,0 0.085,-0.017 0.119,-0.047 0.034,-0.03 0.047,-0.071 0.047,-0.118 z m -8.178,6.036 c 0.721,0 1.351,-0.172 1.89,-0.519 0.538,-0.343 0.894,-0.811 1.07,-1.401 0.017,-0.064 0.04,-0.172 0.067,-0.316 0.011,-0.054 0,-0.098 -0.033,-0.132 -0.034,-0.033 -0.071,-0.054 -0.119,-0.06 l -1.25,-0.192 c -0.101,-0.017 -0.165,0.027 -0.193,0.138 0,0.017 -0.003,0.033 -0.013,0.04 0,0.027 -0.003,0.051 -0.014,0.067 -0.074,0.304 -0.237,0.546 -0.491,0.725 -0.254,0.178 -0.558,0.269 -0.911,0.269 -0.352,0 -0.66,-0.094 -0.904,-0.283 -0.244,-0.188 -0.406,-0.444 -0.501,-0.768 -0.085,-0.313 -0.125,-0.721 -0.125,-1.229 0,-0.509 0.047,-0.933 0.138,-1.23 0.085,-0.313 0.248,-0.559 0.495,-0.737 0.244,-0.179 0.545,-0.27 0.894,-0.27 0.349,0 0.64,0.085 0.887,0.25 0.247,0.165 0.417,0.377 0.501,0.636 0.017,0.054 0.038,0.121 0.055,0.192 0.01,0.027 0.013,0.064 0.013,0.111 0.027,0.091 0.085,0.138 0.166,0.138 h 0.027 l 1.25,-0.178 c 0.101,-0.017 0.152,-0.074 0.152,-0.165 v -0.027 c -0.017,-0.148 -0.051,-0.293 -0.098,-0.441 -0.176,-0.543 -0.532,-0.994 -1.07,-1.354 -0.535,-0.361 -1.165,-0.539 -1.89,-0.539 -0.725,0 -1.331,0.178 -1.852,0.532 -0.525,0.354 -0.881,0.835 -1.077,1.442 -0.149,0.424 -0.224,0.966 -0.224,1.63 0,0.663 0.075,1.243 0.224,1.657 0.203,0.616 0.565,1.108 1.084,1.472 0.518,0.364 1.134,0.545 1.845,0.545 m -6.275,-7.002 v 4.197 c 0,0.431 -0.125,0.778 -0.376,1.034 -0.25,0.259 -0.582,0.387 -0.999,0.387 -0.416,0 -0.725,-0.128 -0.952,-0.387 -0.226,-0.256 -0.338,-0.603 -0.338,-1.034 v -4.197 c 0,-0.047 -0.017,-0.084 -0.048,-0.118 -0.033,-0.034 -0.071,-0.047 -0.118,-0.047 h -1.277 c -0.047,0 -0.084,0.017 -0.118,0.047 -0.034,0.034 -0.048,0.071 -0.048,0.118 v 4.655 c 0,0.744 0.237,1.32 0.715,1.728 0.477,0.404 1.067,0.606 1.771,0.606 0.759,0 1.327,-0.243 1.707,-0.731 0.017,-0.027 0.037,-0.037 0.054,-0.027 0.017,0.01 0.027,0.027 0.027,0.054 v 0.441 c 0,0.047 0.017,0.084 0.047,0.118 0.034,0.034 0.072,0.047 0.119,0.047 h 1.263 c 0.048,0 0.085,-0.017 0.119,-0.047 0.033,-0.034 0.047,-0.071 0.047,-0.118 v -6.726 c 0,-0.047 -0.017,-0.084 -0.047,-0.118 -0.034,-0.034 -0.071,-0.047 -0.119,-0.047 h -1.263 c -0.047,0 -0.085,0.017 -0.119,0.047 -0.033,0.034 -0.047,0.071 -0.047,0.118 z m -6.109,-0.249 c -0.694,0 -1.236,0.299 -1.626,0.899 -0.017,0.027 -0.034,0.04 -0.047,0.034 -0.014,-0.004 -0.02,-0.024 -0.02,-0.061 v -0.62 c 0,-0.047 -0.017,-0.084 -0.048,-0.118 -0.034,-0.033 -0.071,-0.047 -0.118,-0.047 h -1.277 c -0.048,0 -0.085,0.017 -0.119,0.047 -0.034,0.034 -0.047,0.071 -0.047,0.118 v 6.727 c 0,0.047 0.017,0.084 0.047,0.117 0.034,0.034 0.071,0.048 0.119,0.048 h 1.277 c 0.047,0 0.084,-0.017 0.118,-0.048 0.034,-0.033 0.048,-0.07 0.048,-0.117 v -3.907 c 0,-0.405 0.128,-0.735 0.389,-0.987 0.257,-0.253 0.582,-0.388 0.972,-0.408 0.064,-0.01 0.156,-0.013 0.278,-0.013 0.186,0 0.348,0.023 0.487,0.067 0.119,0.047 0.187,0.013 0.193,-0.098 l 0.237,-1.243 c 0.017,-0.101 -0.01,-0.171 -0.084,-0.205 -0.224,-0.118 -0.481,-0.179 -0.779,-0.179 m -4.735,1.216 v -0.966 c 0,-0.047 -0.016,-0.085 -0.047,-0.118 -0.034,-0.034 -0.071,-0.047 -0.118,-0.047 h -1.416 c -0.047,0 -0.068,-0.024 -0.068,-0.068 v -1.616 c 0,-0.048 -0.017,-0.085 -0.047,-0.118 -0.034,-0.034 -0.071,-0.047 -0.119,-0.047 h -1.209 c -0.047,0 -0.084,0.016 -0.118,0.047 -0.034,0.033 -0.048,0.07 -0.048,0.118 v 1.616 c 0,0.047 -0.023,0.068 -0.071,0.068 h -0.792 c -0.048,0 -0.085,0.016 -0.119,0.047 -0.034,0.033 -0.047,0.071 -0.047,0.118 v 0.966 c 0,0.048 0.017,0.085 0.047,0.118 0.034,0.034 0.071,0.047 0.119,0.047 h 0.792 c 0.048,0 0.071,0.024 0.071,0.068 v 3.934 c 0.011,0.69 0.193,1.158 0.556,1.408 0.362,0.249 0.907,0.374 1.639,0.374 l 0.721,-0.014 c 0.112,-0.017 0.166,-0.077 0.166,-0.178 V 122.7 c 0,-0.048 -0.017,-0.085 -0.047,-0.118 -0.034,-0.034 -0.071,-0.047 -0.119,-0.047 h -0.416 c -0.332,0 -0.576,-0.078 -0.729,-0.236 -0.152,-0.155 -0.23,-0.411 -0.23,-0.761 v -3.328 c 0,-0.047 0.024,-0.068 0.068,-0.068 h 1.416 c 0.047,0 0.084,-0.016 0.118,-0.047 0.034,-0.033 0.047,-0.07 0.047,-0.118 z m -7.9544,6.009 c 0.8601,0 1.551,-0.185 2.0691,-0.559 0.5183,-0.374 0.7793,-0.886 0.7793,-1.539 0,-0.431 -0.116,-0.785 -0.346,-1.058 -0.2301,-0.273 -0.5146,-0.485 -0.8464,-0.636 -0.3319,-0.152 -0.7451,-0.3 -1.2361,-0.448 l -0.3048,-0.085 c -0.508,-0.138 -0.8737,-0.262 -1.0905,-0.38 -0.2167,-0.115 -0.3251,-0.283 -0.3251,-0.505 0,-0.24 0.1118,-0.425 0.3421,-0.559 0.2269,-0.135 0.5215,-0.199 0.8805,-0.199 0.4063,0 0.7281,0.081 0.9651,0.242 0.2371,0.162 0.3556,0.361 0.3556,0.6 0,0.047 0.0169,0.084 0.0474,0.118 0.0339,0.033 0.0711,0.047 0.1185,0.047 h 1.1787 c 0.047,0 0.085,-0.017 0.118,-0.047 0.034,-0.034 0.048,-0.071 0.048,-0.118 0,-0.404 -0.115,-0.765 -0.346,-1.085 -0.2299,-0.316 -0.5584,-0.566 -0.9851,-0.744 -0.4267,-0.179 -0.9211,-0.27 -1.4867,-0.27 -0.8331,0 -1.5036,0.192 -2.015,0.573 -0.5079,0.381 -0.7619,0.896 -0.7619,1.539 0,0.425 0.1117,0.772 0.3319,1.044 0.2235,0.273 0.4944,0.485 0.8195,0.644 0.3251,0.158 0.7213,0.303 1.1954,0.441 l 0.5283,0.165 c 0.4267,0.121 0.7349,0.232 0.9245,0.337 0.1897,0.104 0.2845,0.266 0.2845,0.475 0,0.229 -0.1151,0.421 -0.3454,0.572 -0.2303,0.152 -0.5317,0.229 -0.9042,0.229 -0.3895,0 -0.7112,-0.084 -0.9652,-0.256 -0.254,-0.171 -0.3826,-0.37 -0.3826,-0.599 v -0.027 c 0,-0.047 -0.017,-0.084 -0.0475,-0.118 -0.0338,-0.034 -0.0711,-0.047 -0.1185,-0.047 h -1.2225 c -0.0474,0 -0.0847,0.017 -0.1185,0.047 -0.0339,0.034 -0.0474,0.071 -0.0474,0.118 v 0.125 c 0,0.367 0.1219,0.704 0.3623,1 0.2405,0.3 0.5791,0.535 1.0193,0.704 0.4403,0.172 0.9516,0.256 1.5341,0.256 m -7.5112,-1.243 c -0.342,0 -0.6231,-0.081 -0.8399,-0.243 -0.2167,-0.161 -0.3251,-0.39 -0.3251,-0.683 0,-0.34 0.1423,-0.603 0.4233,-0.788 0.2811,-0.186 0.6706,-0.277 1.1582,-0.277 h 1.165 c 0.0474,0 0.0677,0.024 0.0677,0.068 v 0.65 c 0,0.367 -0.1625,0.673 -0.4843,0.913 -0.3251,0.239 -0.7111,0.36 -1.1649,0.36 z m 0.3319,-6.006 c -0.806,0 -1.4732,0.179 -2.0048,0.539 -0.5317,0.361 -0.8365,0.819 -0.9076,1.381 -0.0102,0.037 0,0.068 0.0338,0.091 0.0339,0.024 0.0712,0.041 0.1186,0.047 l 1.3478,0.166 c 0.1016,0.02 0.1659,-0.027 0.193,-0.139 0.0542,-0.222 0.193,-0.394 0.4098,-0.518 0.2167,-0.125 0.5012,-0.186 0.8534,-0.186 0.4267,0 0.745,0.098 0.9584,0.297 0.2133,0.199 0.3183,0.475 0.3183,0.835 v 0.33 c 0,0.047 -0.0237,0.068 -0.0677,0.068 h -1.4867 c -0.9177,0 -1.6255,0.202 -2.1301,0.599 -0.5046,0.401 -0.7552,0.96 -0.7552,1.678 0,0.717 0.2235,1.212 0.6739,1.559 0.4504,0.35 1.0194,0.525 1.7136,0.525 0.8601,0 1.5171,-0.249 1.9709,-0.744 0.0169,-0.017 0.0373,-0.027 0.0542,-0.02 0.0169,0.003 0.0271,0.02 0.0271,0.047 v 0.441 c 0,0.047 0.0169,0.084 0.0474,0.118 0.0339,0.034 0.0711,0.047 0.1185,0.047 h 1.2767 c 0.0475,0 0.0847,-0.017 0.1186,-0.047 0.0338,-0.034 0.0474,-0.071 0.0474,-0.118 v -4.655 c 0,-0.451 -0.1219,-0.852 -0.3624,-1.209 -0.2404,-0.353 -0.5825,-0.633 -1.0261,-0.835 -0.4436,-0.202 -0.9584,-0.303 -1.5408,-0.303 m -4.5549,0.027 c -0.6942,0 -1.2361,0.299 -1.6255,0.899 -0.0169,0.027 -0.0339,0.04 -0.0474,0.034 -0.0136,-0.007 -0.0203,-0.024 -0.0203,-0.061 v -0.62 c 0,-0.047 -0.017,-0.084 -0.0474,-0.118 -0.0339,-0.033 -0.0712,-0.047 -0.1186,-0.047 h -1.2767 c -0.0474,0 -0.0846,0.017 -0.1185,0.047 -0.0339,0.034 -0.0474,0.071 -0.0474,0.118 v 6.727 c 0,0.047 0.0169,0.084 0.0474,0.117 0.0339,0.034 0.0711,0.048 0.1185,0.048 h 1.2767 c 0.0474,0 0.0847,-0.017 0.1186,-0.048 0.0338,-0.033 0.0474,-0.07 0.0474,-0.117 v -3.907 c 0,-0.405 0.1287,-0.735 0.3894,-0.987 0.2574,-0.253 0.5825,-0.388 0.9719,-0.408 0.0644,-0.01 0.1558,-0.013 0.2777,-0.013 0.1863,0 0.3455,0.023 0.4843,0.067 0.1185,0.047 0.1863,0.013 0.193,-0.098 l 0.2371,-1.243 c 0.0169,-0.101 -0.0102,-0.171 -0.0847,-0.205 -0.2235,-0.118 -0.4809,-0.179 -0.7789,-0.179 m -4.8325,0.068 h -1.3749 c -0.0474,0 -0.0711,-0.024 -0.0711,-0.068 v -0.138 c 0,-0.414 0.0779,-0.7 0.2302,-0.855 0.1524,-0.155 0.4268,-0.236 0.8264,-0.236 h 0.3623 c 0.0474,0 0.0847,-0.017 0.1185,-0.047 0.0339,-0.034 0.0474,-0.071 0.0474,-0.118 V 114.4 c 0,-0.047 -0.0169,-0.084 -0.0474,-0.118 -0.0338,-0.033 -0.0711,-0.047 -0.1185,-0.047 h -0.4843 c -0.6569,-0.01 -1.1649,0.054 -1.5273,0.192 -0.3623,0.138 -0.6197,0.371 -0.7789,0.698 -0.1557,0.326 -0.237,0.788 -0.237,1.387 v 0.249 c 0,0.048 -0.0237,0.068 -0.0711,0.068 h -0.8602 c -0.0474,0 -0.0847,0.017 -0.1185,0.047 -0.0339,0.034 -0.0474,0.071 -0.0474,0.118 v 1.091 c 0,0.047 0.0169,0.084 0.0474,0.118 0.0338,0.034 0.0711,0.047 0.1185,0.047 h 0.8602 c 0.0474,0 0.0711,0.024 0.0711,0.068 v 5.412 c 0,0.047 0.0169,0.084 0.0474,0.118 0.0339,0.034 0.0711,0.047 0.1185,0.047 h 1.2767 c 0.0474,0 0.0847,-0.017 0.1186,-0.047 0.0338,-0.034 0.0474,-0.071 0.0474,-0.118 v -5.412 c 0,-0.048 0.0237,-0.068 0.0711,-0.068 h 1.3749 c 0.0474,0 0.0847,-0.017 0.1185,-0.047 0.0339,-0.034 0.0474,-0.071 0.0474,-0.118 v -1.091 c 0,-0.047 -0.0169,-0.084 -0.0474,-0.118 -0.0338,-0.034 -0.0711,-0.047 -0.1185,-0.047 z m -7.8431,-0.098 c -0.7688,0 -1.3411,0.249 -1.7204,0.745 -0.0101,0.026 -0.0237,0.037 -0.0406,0.026 -0.0203,-0.01 -0.0271,-0.026 -0.0271,-0.053 v -0.442 c 0,-0.047 -0.0169,-0.084 -0.0474,-0.118 -0.0339,-0.033 -0.0711,-0.047 -0.1185,-0.047 h -1.2767 c -0.0475,0 -0.0847,0.017 -0.1186,0.047 -0.0338,0.034 -0.0474,0.071 -0.0474,0.118 v 6.727 c 0,0.047 0.0169,0.084 0.0474,0.117 0.0339,0.034 0.0711,0.048 0.1186,0.048 h 1.2767 c 0.0474,0 0.0846,-0.017 0.1185,-0.048 0.0339,-0.033 0.0474,-0.07 0.0474,-0.117 v -4.211 c 0,-0.424 0.1219,-0.764 0.3691,-1.02 0.2439,-0.256 0.5656,-0.388 0.9652,-0.388 0.3996,0 0.7179,0.132 0.9584,0.395 0.2404,0.262 0.3623,0.606 0.3623,1.027 v 4.197 c 0,0.047 0.0169,0.084 0.0474,0.117 0.0339,0.034 0.0711,0.048 0.1186,0.048 h 1.2767 c 0.0474,0 0.0846,-0.017 0.1185,-0.048 0.0339,-0.033 0.0474,-0.07 0.0474,-0.117 v -4.531 c 0,-0.764 -0.2235,-1.367 -0.6739,-1.808 -0.4504,-0.442 -1.0498,-0.664 -1.7982,-0.664 m -6.7189,7.168 h 1.2768 c 0.0474,0 0.0846,-0.017 0.1185,-0.048 0.0339,-0.033 0.0474,-0.07 0.0474,-0.117 v -9.337 c 0,-0.047 -0.0169,-0.084 -0.0474,-0.118 -0.0305,-0.034 -0.0711,-0.047 -0.1185,-0.047 h -1.2768 c -0.0474,0 -0.0846,0.017 -0.1185,0.047 -0.0338,0.034 -0.0474,0.071 -0.0474,0.118 v 9.337 c 0,0.047 0.0169,0.084 0.0474,0.117 0.0339,0.034 0.0711,0.048 0.1185,0.048 z m -8.8997,-7.168 c -0.7687,0 -1.341,0.249 -1.7203,0.745 -0.0102,0.026 -0.0237,0.037 -0.0406,0.026 -0.0204,-0.01 -0.0271,-0.026 -0.0271,-0.053 v -3.052 c 0,-0.047 -0.017,-0.084 -0.0474,-0.118 -0.0339,-0.034 -0.0712,-0.047 -0.1186,-0.047 h -1.2767 c -0.0474,0 -0.0847,0.017 -0.1185,0.047 -0.0339,0.034 -0.0474,0.071 -0.0474,0.118 v 9.337 c 0,0.047 0.0169,0.084 0.0474,0.117 0.0338,0.034 0.0711,0.048 0.1185,0.048 h 1.2767 c 0.0474,0 0.0847,-0.017 0.1186,-0.048 0.0338,-0.033 0.0474,-0.07 0.0474,-0.117 v -4.211 c 0,-0.424 0.1219,-0.764 0.3691,-1.02 0.2438,-0.256 0.5655,-0.388 0.9651,-0.388 0.3996,0 0.718,0.132 0.9584,0.395 0.2405,0.262 0.3624,0.606 0.3624,1.027 v 4.197 c 0,0.047 0.0169,0.084 0.0474,0.117 0.0339,0.034 0.0711,0.048 0.1185,0.048 h 1.2767 c 0.0474,0 0.0847,-0.017 0.1185,-0.048 0.0339,-0.033 0.0475,-0.07 0.0475,-0.117 v -4.531 c 0,-0.764 -0.2235,-1.367 -0.6739,-1.808 -0.4505,-0.442 -1.0499,-0.664 -1.7983,-0.664 m -7.816,7.279 c 0.7213,0 1.3512,-0.172 1.8896,-0.519 0.5351,-0.343 0.8941,-0.812 1.0702,-1.401 0.0169,-0.064 0.0406,-0.172 0.0711,-0.317 0.0102,-0.054 0,-0.097 -0.0339,-0.131 -0.0338,-0.034 -0.0711,-0.054 -0.1185,-0.061 l -1.2496,-0.192 c -0.1016,-0.016 -0.166,0.027 -0.193,0.138 0,0.017 -0.0034,0.034 -0.0136,0.041 0,0.027 -0.0034,0.05 -0.0135,0.067 -0.0745,0.303 -0.2371,0.546 -0.4911,0.724 -0.254,0.179 -0.5587,0.27 -0.9109,0.27 -0.3522,0 -0.6604,-0.094 -0.9042,-0.283 -0.2405,-0.189 -0.4064,-0.445 -0.5012,-0.768 -0.0847,-0.313 -0.1253,-0.721 -0.1253,-1.229 0,-0.509 0.0474,-0.933 0.1388,-1.23 0.0847,-0.313 0.2472,-0.559 0.4944,-0.737 0.2439,-0.179 0.5419,-0.27 0.8941,-0.27 0.3522,0 0.64,0.084 0.8872,0.249 0.2506,0.165 0.4166,0.378 0.5012,0.637 0.0204,0.054 0.0373,0.121 0.0542,0.192 0.0102,0.027 0.0136,0.064 0.0136,0.111 0.0271,0.091 0.0846,0.138 0.1659,0.138 h 0.0271 l 1.2496,-0.178 c 0.1016,-0.017 0.1524,-0.074 0.1524,-0.165 v -0.027 c -0.0203,-0.149 -0.0508,-0.293 -0.0982,-0.442 -0.1761,-0.542 -0.5317,-0.993 -1.0701,-1.354 -0.5385,-0.36 -1.165,-0.539 -1.8897,-0.539 -0.7247,0 -1.3309,0.179 -1.8524,0.533 -0.5215,0.353 -0.8805,0.835 -1.0769,1.441 -0.149,0.425 -0.2235,0.967 -0.2235,1.63 0,0.664 0.0745,1.243 0.2235,1.658 0.2032,0.616 0.5655,1.108 1.0837,1.472 0.5181,0.363 1.1344,0.545 1.8456,0.545 m -4.7343,-7.252 c -0.6943,0 -1.2361,0.3 -1.6256,0.9 -0.0203,0.027 -0.0338,0.04 -0.0474,0.033 -0.0135,-0.003 -0.0203,-0.023 -0.0203,-0.06 v -0.62 c 0,-0.047 -0.0169,-0.084 -0.0474,-0.118 -0.0339,-0.034 -0.0711,-0.047 -0.1185,-0.047 h -1.2767 c -0.0474,0 -0.0847,0.017 -0.1186,0.047 -0.0338,0.034 -0.0474,0.071 -0.0474,0.118 v 6.726 c 0,0.047 0.017,0.085 0.0474,0.118 0.0339,0.034 0.0712,0.047 0.1186,0.047 h 1.2767 c 0.0474,0 0.0846,-0.016 0.1185,-0.047 0.0339,-0.033 0.0474,-0.071 0.0474,-0.118 v -3.907 c 0,-0.404 0.1287,-0.734 0.3895,-0.987 0.2573,-0.252 0.5824,-0.387 0.9719,-0.407 0.0643,-0.01 0.1558,-0.014 0.2777,-0.014 0.1862,0 0.3454,0.024 0.4843,0.068 0.1185,0.047 0.1862,0.013 0.193,-0.098 l 0.237,-1.243 c 0.017,-0.101 -0.0101,-0.172 -0.0846,-0.205 -0.2235,-0.118 -0.4809,-0.179 -0.7789,-0.179 m -8.1784,5.979 c -0.342,0 -0.6231,-0.081 -0.8399,-0.243 -0.2167,-0.161 -0.3251,-0.39 -0.3251,-0.684 0,-0.34 0.1423,-0.602 0.4233,-0.788 0.2811,-0.185 0.6672,-0.276 1.1582,-0.276 h 1.165 c 0.0474,0 0.0677,0.024 0.0677,0.067 v 0.651 c 0,0.367 -0.1625,0.673 -0.4843,0.912 -0.3251,0.239 -0.7145,0.361 -1.1649,0.361 z m 0.3319,-6.006 c -0.806,0 -1.4732,0.179 -2.0048,0.539 -0.5317,0.361 -0.8365,0.819 -0.911,1.381 -0.0102,0.037 0,0.067 0.0339,0.091 0.0338,0.024 0.0711,0.04 0.1185,0.047 l 1.3478,0.165 c 0.1016,0.02 0.166,-0.027 0.193,-0.138 0.0542,-0.222 0.1931,-0.394 0.4098,-0.519 0.2167,-0.124 0.5012,-0.185 0.8534,-0.185 0.4267,0 0.745,0.098 0.9584,0.297 0.2133,0.198 0.3183,0.475 0.3183,0.835 v 0.33 c 0,0.047 -0.0237,0.067 -0.0677,0.067 h -1.4867 c -0.9177,0 -1.6255,0.202 -2.1301,0.6 -0.5046,0.401 -0.7586,0.96 -0.7586,1.677 0,0.718 0.2235,1.213 0.6739,1.56 0.4471,0.35 1.0194,0.525 1.7136,0.525 0.8602,0 1.5172,-0.249 1.971,-0.744 0.0169,-0.017 0.0372,-0.027 0.0541,-0.02 0.017,0.003 0.0271,0.02 0.0271,0.047 v 0.441 c 0,0.047 0.017,0.084 0.0474,0.118 0.0305,0.034 0.0712,0.047 0.1186,0.047 h 1.2767 c 0.0474,0 0.0846,-0.017 0.1185,-0.047 0.0339,-0.034 0.0474,-0.071 0.0474,-0.118 v -4.655 c 0,-0.451 -0.1219,-0.852 -0.3623,-1.209 -0.2405,-0.354 -0.5825,-0.633 -1.0261,-0.835 -0.4437,-0.202 -0.9584,-0.304 -1.5409,-0.304 m -7.2471,1.381 c 0.3691,0 0.6773,0.091 0.9245,0.277 0.2438,0.185 0.4098,0.441 0.4944,0.774 0.0373,0.122 0.0644,0.297 0.0847,0.526 0,0.047 -0.0237,0.067 -0.0677,0.067 h -2.8176 c -0.0542,0 -0.0745,-0.023 -0.0542,-0.067 0.0203,-0.249 0.0542,-0.452 0.1118,-0.607 0.0914,-0.303 0.254,-0.538 0.4809,-0.71 0.2268,-0.172 0.5113,-0.256 0.8533,-0.256 m 3.0818,1.465 c -0.2303,-1.896 -1.2598,-2.846 -3.0818,-2.846 -0.7213,0 -1.341,0.185 -1.8524,0.559 -0.5147,0.374 -0.8635,0.882 -1.0498,1.526 -0.1117,0.33 -0.1659,0.764 -0.1659,1.297 0,0.882 0.105,1.572 0.3183,2.071 0.2303,0.579 0.5994,1.031 1.104,1.354 0.5046,0.323 1.1176,0.482 1.8389,0.482 0.5825,0 1.1141,-0.112 1.5882,-0.33 0.4775,-0.223 0.8602,-0.536 1.1447,-0.94 0.0542,-0.084 0.0406,-0.155 -0.0407,-0.222 l -0.8601,-0.704 c -0.0271,-0.027 -0.061,-0.041 -0.0982,-0.041 -0.0542,0 -0.1016,0.027 -0.1389,0.084 -0.3691,0.516 -0.8703,0.775 -1.5002,0.775 -0.8602,-0.01 -1.402,-0.347 -1.6255,-1.007 -0.0542,-0.111 -0.0982,-0.317 -0.1253,-0.62 0,-0.047 0.0237,-0.067 0.0677,-0.067 h 4.3449 c 0.1117,0 0.1659,-0.054 0.1659,-0.165 l 0.0136,-0.428 c 0,-0.286 -0.0203,-0.542 -0.0542,-0.775 m -10.19,4.406 c 0.8602,0 1.551,-0.185 2.0692,-0.559 0.5181,-0.374 0.7789,-0.886 0.7789,-1.539 0,-0.432 -0.1152,-0.785 -0.3455,-1.058 -0.2302,-0.273 -0.5147,-0.485 -0.8466,-0.637 -0.3319,-0.151 -0.745,-0.299 -1.2361,-0.448 l -0.3047,-0.084 c -0.508,-0.138 -0.8738,-0.263 -1.0905,-0.38 -0.2167,-0.115 -0.3251,-0.283 -0.3251,-0.506 0,-0.239 0.1118,-0.424 0.3387,-0.559 0.2268,-0.134 0.5215,-0.198 0.8804,-0.198 0.4064,0 0.7281,0.08 0.9652,0.242 0.237,0.162 0.3522,0.36 0.3522,0.6 0,0.047 0.0169,0.084 0.0474,0.117 0.0339,0.034 0.0711,0.048 0.1185,0.048 h 1.1819 c 0.0474,0 0.0847,-0.017 0.1185,-0.048 0.0339,-0.033 0.0475,-0.07 0.0475,-0.117 0,-0.405 -0.1152,-0.765 -0.3489,-1.085 -0.2302,-0.317 -0.5587,-0.566 -0.9854,-0.744 -0.4267,-0.179 -0.9212,-0.27 -1.4867,-0.27 -0.8331,0 -1.5036,0.192 -2.0116,0.573 -0.508,0.38 -0.7653,0.896 -0.7653,1.539 0,0.424 0.1117,0.771 0.3318,1.044 0.2236,0.273 0.4945,0.485 0.8196,0.644 0.3251,0.158 0.7213,0.303 1.1954,0.441 l 0.5283,0.165 c 0.4267,0.121 0.7349,0.232 0.9245,0.337 0.1897,0.104 0.2845,0.266 0.2845,0.475 0,0.229 -0.1152,0.421 -0.3488,0.572 -0.2303,0.152 -0.5317,0.229 -0.9042,0.229 -0.3895,0 -0.7112,-0.084 -0.9652,-0.256 -0.254,-0.172 -0.3826,-0.37 -0.3826,-0.599 v -0.027 c 0,-0.047 -0.017,-0.085 -0.0475,-0.118 -0.0338,-0.034 -0.0711,-0.047 -0.1185,-0.047 h -1.2225 c -0.0474,0 -0.0847,0.016 -0.1185,0.047 -0.0339,0.033 -0.0474,0.071 -0.0474,0.118 v 0.124 c 0,0.367 0.1185,0.704 0.3623,1.001 0.2405,0.299 0.5825,0.535 1.0193,0.704 0.4403,0.171 0.9517,0.256 1.5341,0.256 m -7.1353,-5.871 c 0.3691,0 0.6773,0.091 0.9245,0.276 0.2438,0.185 0.4098,0.441 0.4944,0.775 0.0373,0.121 0.0644,0.296 0.0847,0.525 0,0.047 -0.0237,0.068 -0.0711,0.068 h -2.8176 c -0.0542,0 -0.0745,-0.024 -0.0542,-0.068 0.017,-0.249 0.0542,-0.451 0.1118,-0.606 0.0914,-0.303 0.2506,-0.539 0.4775,-0.711 0.2269,-0.172 0.5113,-0.256 0.8534,-0.256 m 3.0817,1.465 c -0.2303,-1.896 -1.2598,-2.846 -3.0817,-2.846 -0.7214,0 -1.3411,0.185 -1.8524,0.559 -0.5148,0.374 -0.8636,0.883 -1.0499,1.526 -0.1117,0.33 -0.1659,0.765 -0.1659,1.297 0,0.882 0.105,1.573 0.3183,2.071 0.2303,0.58 0.5994,1.031 1.104,1.354 0.5046,0.324 1.1176,0.482 1.8389,0.482 0.5825,0 1.1142,-0.111 1.5883,-0.33 0.4775,-0.222 0.8567,-0.536 1.1446,-0.94 0.0542,-0.084 0.0406,-0.155 -0.0406,-0.222 l -0.8602,-0.704 c -0.0271,-0.027 -0.061,-0.04 -0.0982,-0.04 -0.0542,0 -0.1016,0.026 -0.1389,0.084 -0.3691,0.515 -0.8703,0.774 -1.5002,0.774 -0.8602,-0.01 -1.402,-0.347 -1.6255,-1.007 -0.0542,-0.111 -0.0982,-0.316 -0.1253,-0.619 0,-0.048 0.0237,-0.068 0.0711,-0.068 h 4.3449 c 0.1117,0 0.1659,-0.054 0.1659,-0.165 l 0.0136,-0.428 c 0,-0.286 -0.0203,-0.542 -0.0542,-0.774 M 6.18205,115.626 h 2.0827 c 0.44363,0 0.8026,0.135 1.07691,0.401 0.2743,0.266 0.40976,0.617 0.40976,1.051 0,0.435 -0.13546,0.781 -0.40976,1.044 -0.27431,0.263 -0.62989,0.394 -1.07691,0.394 h -2.0827 c -0.04741,0 -0.06773,-0.023 -0.06773,-0.067 V 115.7 c 0,-0.047 0.02371,-0.067 0.06773,-0.067 m 3.77595,8.286 h 1.3343 c 0.1016,0 0.1524,-0.037 0.1524,-0.111 0,-0.017 -0.0102,-0.047 -0.0271,-0.085 l -1.95742,-4.018 c -0.01016,-0.017 -0.01016,-0.037 0,-0.054 0.01016,-0.016 0.02371,-0.027 0.04064,-0.027 0.58248,-0.175 1.03968,-0.485 1.36818,-0.933 0.3285,-0.448 0.4944,-0.986 0.4944,-1.623 0,-0.552 -0.1219,-1.041 -0.3624,-1.472 -0.2404,-0.428 -0.5791,-0.761 -1.01252,-0.994 -0.43347,-0.235 -0.93468,-0.353 -1.50022,-0.353 H 4.67168 c -0.04742,0 -0.08467,0.017 -0.11853,0.047 -0.03387,0.034 -0.04741,0.071 -0.04741,0.118 v 9.336 c 0,0.048 0.01693,0.085 0.04741,0.118 0.03386,0.034 0.07111,0.047 0.11853,0.047 h 1.27671 c 0.04741,0 0.08466,-0.016 0.11852,-0.047 0.03387,-0.033 0.04741,-0.07 0.04741,-0.118 v -3.92 c 0,-0.047 0.02371,-0.067 0.06773,-0.067 h 1.66616 c 0.03725,0 0.06434,0.016 0.08466,0.053 l 1.8321,3.978 c 0.03725,0.084 0.10159,0.125 0.19303,0.125 z"
       fill="#d5d2b8"
       id="path168"
       inkscape:label="path168"
       style="fill:#ffffff;fill-opacity:1" />
    <path
       d="m 151.063,99.4289 h -7.525 c -0.067,0 -0.118,0.0202 -0.155,0.0573 -0.038,0.037 -0.058,0.0909 -0.058,0.1549 v 1.8659 c 0,0.067 0.02,0.118 0.058,0.155 0.037,0.037 0.091,0.057 0.155,0.057 h 2.32 c 0.048,0 0.071,0.024 0.071,0.071 v 7.329 c 0,0.068 0.021,0.118 0.058,0.155 0.037,0.037 0.091,0.057 0.156,0.057 h 2.248 c 0.068,0 0.119,-0.02 0.156,-0.057 0.037,-0.037 0.058,-0.091 0.058,-0.155 v -7.329 c 0,-0.047 0.023,-0.071 0.071,-0.071 h 2.391 c 0.067,0 0.118,-0.02 0.155,-0.057 0.038,-0.037 0.058,-0.091 0.058,-0.155 v -1.8659 c 0,-0.0674 -0.02,-0.1179 -0.058,-0.1549 -0.037,-0.0371 -0.091,-0.0573 -0.155,-0.0573 m -12.944,10.0171 c 0.769,0 1.443,-0.121 2.019,-0.367 0.579,-0.246 1.029,-0.596 1.351,-1.054 0.322,-0.459 0.484,-1.001 0.484,-1.634 0,-0.633 -0.2,-1.206 -0.596,-1.664 -0.396,-0.458 -0.894,-0.775 -1.486,-0.946 -0.593,-0.176 -0.928,-0.277 -1.003,-0.304 -0.548,-0.168 -0.958,-0.309 -1.222,-0.417 -0.265,-0.108 -0.461,-0.222 -0.59,-0.34 -0.128,-0.118 -0.193,-0.263 -0.193,-0.431 0,-0.216 0.088,-0.388 0.264,-0.509 0.177,-0.121 0.417,-0.185 0.718,-0.185 0.437,0 0.783,0.114 1.04,0.347 0.257,0.232 0.383,0.488 0.383,0.771 v 0.013 c 0,0.068 0.02,0.118 0.057,0.155 0.038,0.037 0.092,0.058 0.156,0.058 h 2.205 c 0.067,0 0.118,-0.021 0.155,-0.058 0.038,-0.037 0.058,-0.091 0.058,-0.155 v -0.128 c 0,-0.64 -0.173,-1.212 -0.518,-1.711 -0.346,-0.498 -0.82,-0.885 -1.422,-1.1583 -0.603,-0.2728 -1.274,-0.4109 -2.012,-0.4109 -0.738,0 -1.334,0.1212 -1.9,0.3671 -0.565,0.2459 -1.006,0.5961 -1.331,1.0541 -0.321,0.458 -0.484,0.984 -0.484,1.576 0,0.896 0.318,1.58 0.952,2.052 0.636,0.471 1.422,0.848 2.36,1.131 l 0.413,0.115 c 0.501,0.151 0.85,0.279 1.04,0.381 0.189,0.104 0.284,0.259 0.284,0.468 0,0.178 -0.074,0.34 -0.227,0.488 -0.152,0.145 -0.403,0.219 -0.755,0.219 -0.464,0 -0.836,-0.101 -1.117,-0.303 -0.281,-0.202 -0.42,-0.435 -0.42,-0.701 v -0.084 c 0,-0.067 -0.021,-0.118 -0.058,-0.155 -0.037,-0.037 -0.091,-0.057 -0.156,-0.057 h -2.204 c -0.068,0 -0.119,0.02 -0.156,0.057 -0.037,0.037 -0.058,0.091 -0.058,0.155 v 0.199 c 0,0.633 0.163,1.189 0.491,1.67 0.329,0.482 0.79,0.853 1.389,1.112 0.596,0.259 1.294,0.387 2.089,0.387 m -9.414,0 c 0.769,0 1.446,-0.145 2.035,-0.438 0.589,-0.293 1.043,-0.707 1.365,-1.246 0.322,-0.539 0.484,-1.158 0.484,-1.866 v -6.2511 c 0,-0.0674 -0.02,-0.1179 -0.057,-0.155 -0.038,-0.037 -0.092,-0.0572 -0.156,-0.0572 h -2.249 c -0.067,0 -0.118,0.0202 -0.156,0.0572 -0.037,0.0371 -0.057,0.091 -0.057,0.155 v 6.2511 c 0,0.377 -0.112,0.684 -0.335,0.92 -0.224,0.236 -0.515,0.353 -0.874,0.353 -0.359,0 -0.667,-0.114 -0.887,-0.347 -0.224,-0.232 -0.336,-0.538 -0.336,-0.926 v -6.2511 c 0,-0.0674 -0.02,-0.1179 -0.057,-0.155 -0.037,-0.037 -0.092,-0.0572 -0.156,-0.0572 h -2.249 c -0.067,0 -0.118,0.0202 -0.155,0.0572 -0.038,0.0371 -0.058,0.091 -0.058,0.155 v 6.2511 c 0,0.708 0.163,1.331 0.484,1.866 0.322,0.539 0.779,0.953 1.372,1.246 0.592,0.293 1.273,0.438 2.042,0.438 z m -10.854,-3.58 0.898,-3.17 c 0.01,-0.027 0.023,-0.043 0.044,-0.043 0.02,0 0.034,0.013 0.044,0.043 l 0.911,3.17 c 0.02,0.057 0,0.084 -0.058,0.084 h -1.778 c -0.047,0 -0.068,-0.027 -0.057,-0.084 m 3.085,3.466 h 2.431 c 0.132,0 0.2,-0.051 0.2,-0.155 0,-0.037 -0.003,-0.068 -0.014,-0.084 l -3,-9.4919 c -0.037,-0.1146 -0.119,-0.1684 -0.24,-0.1684 h -3.014 c -0.122,0 -0.204,0.0572 -0.241,0.1684 l -3,9.4919 c -0.048,0.161 0.013,0.239 0.186,0.239 h 2.431 c 0.133,0 0.214,-0.061 0.241,-0.185 l 0.311,-1.105 c 0.017,-0.037 0.044,-0.058 0.072,-0.058 h 3.014 c 0.027,0 0.05,0.021 0.071,0.058 l 0.311,1.105 c 0.027,0.121 0.109,0.185 0.241,0.185 z m -11.863,0.114 c 0.779,0 1.463,-0.145 2.055,-0.431 0.593,-0.286 1.054,-0.69 1.379,-1.209 0.328,-0.519 0.491,-1.118 0.491,-1.795 0,-0.084 -0.071,-0.132 -0.214,-0.142 l -2.248,-0.114 c -0.068,-0.01 -0.119,0 -0.156,0.027 -0.037,0.027 -0.058,0.07 -0.058,0.128 0,0.377 -0.115,0.68 -0.342,0.912 -0.227,0.233 -0.531,0.347 -0.911,0.347 -0.379,0 -0.684,-0.114 -0.911,-0.347 -0.226,-0.232 -0.342,-0.535 -0.342,-0.912 v -3.042 c 0,-0.387 0.116,-0.697 0.342,-0.926 0.227,-0.229 0.532,-0.347 0.911,-0.347 0.38,0 0.684,0.115 0.911,0.347 0.227,0.232 0.342,0.539 0.342,0.926 0,0.105 0.058,0.155 0.17,0.155 h 0.044 l 2.248,-0.141 c 0.143,-0.021 0.214,-0.071 0.214,-0.155 0,-0.681 -0.163,-1.277 -0.491,-1.789 -0.329,-0.515 -0.786,-0.913 -1.379,-1.1955 -0.592,-0.2829 -1.276,-0.4244 -2.055,-0.4244 -0.779,0 -1.463,0.1516 -2.056,0.4514 -0.592,0.3035 -1.053,0.7275 -1.378,1.2735 -0.325,0.545 -0.491,1.179 -0.491,1.896 v 2.856 c 0,0.728 0.162,1.364 0.491,1.917 0.328,0.552 0.786,0.976 1.378,1.28 0.593,0.303 1.277,0.451 2.056,0.451 m -9.4858,-2.22 c -0.3894,0 -0.7044,-0.128 -0.9448,-0.387 -0.2405,-0.259 -0.3624,-0.606 -0.3624,-1.041 v -2.772 c 0,-0.434 0.1219,-0.781 0.3624,-1.041 0.2404,-0.259 0.5554,-0.387 0.9448,-0.387 0.3894,0 0.7178,0.131 0.9588,0.387 0.24,0.26 0.362,0.607 0.362,1.041 v 2.772 c 0,0.435 -0.122,0.782 -0.362,1.041 -0.241,0.259 -0.5626,0.387 -0.9588,0.387 z m 0,2.277 c 0.7958,0 1.4968,-0.158 2.0958,-0.475 0.603,-0.316 1.071,-0.758 1.402,-1.33 0.332,-0.569 0.498,-1.233 0.498,-1.987 v -2.661 c 0,-0.735 -0.166,-1.388 -0.498,-1.954 -0.331,-0.566 -0.799,-1.004 -1.402,-1.3168 -0.602,-0.3099 -1.3,-0.4682 -2.0958,-0.4682 -0.7958,0 -1.4833,0.155 -2.0827,0.4682 -0.6028,0.3098 -1.0701,0.7508 -1.402,1.3168 -0.3319,0.566 -0.4978,1.216 -0.4978,1.954 v 2.661 c 0,0.754 0.1659,1.418 0.4978,1.987 0.3319,0.569 0.7992,1.014 1.402,1.33 0.6028,0.317 1.297,0.475 2.0827,0.475 z m -12.3607,-0.168 h 6.9254 c 0.0643,0 0.1185,-0.02 0.1558,-0.057 0.0372,-0.038 0.0575,-0.091 0.0575,-0.155 v -1.853 c 0,-0.067 -0.0203,-0.118 -0.0575,-0.155 -0.0373,-0.037 -0.0915,-0.057 -0.1558,-0.057 h -4.3957 c -0.0474,0 -0.0711,-0.024 -0.0711,-0.071 v -7.3425 c 0,-0.0674 -0.0203,-0.1179 -0.0576,-0.155 -0.0372,-0.037 -0.0914,-0.0572 -0.1558,-0.0572 h -2.2486 c -0.0677,0 -0.1185,0.0202 -0.1558,0.0572 -0.0372,0.0371 -0.0576,0.091 -0.0576,0.155 v 9.4785 c 0,0.067 0.017,0.117 0.0576,0.155 0.0373,0.037 0.0915,0.057 0.1558,0.057 m -5.9027,-2.109 c -0.3894,0 -0.7044,-0.128 -0.9448,-0.387 -0.2404,-0.259 -0.3624,-0.606 -0.3624,-1.041 v -2.772 c 0,-0.434 0.122,-0.781 0.3624,-1.041 0.2404,-0.259 0.5554,-0.387 0.9448,-0.387 0.3895,0 0.718,0.131 0.9584,0.387 0.2405,0.26 0.3624,0.607 0.3624,1.041 v 2.772 c 0,0.435 -0.1219,0.782 -0.3624,1.041 -0.2404,0.259 -0.5621,0.387 -0.9584,0.387 z m 0,2.277 c 0.7959,0 1.4969,-0.158 2.0963,-0.475 0.6028,-0.316 1.0701,-0.758 1.402,-1.33 0.3319,-0.569 0.4978,-1.233 0.4978,-1.987 v -2.661 c 0,-0.735 -0.1659,-1.388 -0.4978,-1.954 -0.3319,-0.566 -0.7992,-1.004 -1.402,-1.3168 -0.6028,-0.3099 -1.3004,-0.4682 -2.0963,-0.4682 -0.7958,0 -1.4833,0.155 -2.0827,0.4682 -0.6028,0.3098 -1.0701,0.7508 -1.402,1.3168 -0.3318,0.566 -0.4978,1.216 -0.4978,1.954 v 2.661 c 0,0.754 0.166,1.418 0.4978,1.987 0.3319,0.569 0.7992,1.014 1.402,1.33 0.6028,0.317 1.2971,0.475 2.0827,0.475 z M 73.106,99.6445 v 3.4655 c 0,0.048 -0.0237,0.071 -0.0711,0.071 h -2.2182 c -0.0474,0 -0.0711,-0.023 -0.0711,-0.071 v -3.4655 c 0,-0.0674 -0.0203,-0.1179 -0.0575,-0.155 -0.0373,-0.037 -0.0915,-0.0572 -0.1558,-0.0572 h -2.2487 c -0.0677,0 -0.1185,0.0202 -0.1557,0.0572 -0.0373,0.0371 -0.0576,0.091 -0.0576,0.155 v 9.4785 c 0,0.067 0.0203,0.117 0.0576,0.155 0.0372,0.037 0.088,0.057 0.1557,0.057 h 2.2487 c 0.0643,0 0.1185,-0.02 0.1558,-0.057 0.0372,-0.038 0.0575,-0.091 0.0575,-0.155 v -3.594 c 0,-0.047 0.0237,-0.071 0.0711,-0.071 h 2.2182 c 0.0474,0 0.0711,0.024 0.0711,0.071 v 3.594 c 0,0.067 0.0203,0.117 0.0576,0.155 0.0372,0.037 0.088,0.057 0.1558,0.057 h 2.2486 c 0.0643,0 0.1185,-0.02 0.1558,-0.057 0.0372,-0.038 0.0575,-0.091 0.0575,-0.155 v -9.4785 c 0,-0.0674 -0.0203,-0.1179 -0.0575,-0.155 -0.0373,-0.037 -0.0915,-0.0572 -0.1558,-0.0572 h -2.2486 c -0.0678,0 -0.1186,0.0202 -0.1558,0.0572 -0.0373,0.0371 -0.0576,0.091 -0.0576,0.155 z m -14.3621,2.5225 c -0.7688,0 -1.3411,0.25 -1.7204,0.745 -0.0101,0.027 -0.0237,0.037 -0.0406,0.027 -0.0203,-0.011 -0.0271,-0.027 -0.0271,-0.054 v -0.442 c 0,-0.047 -0.0169,-0.084 -0.0474,-0.117 -0.0339,-0.034 -0.0711,-0.048 -0.1185,-0.048 h -1.2767 c -0.0474,0 -0.0847,0.017 -0.1186,0.048 -0.0338,0.033 -0.0474,0.07 -0.0474,0.117 v 6.727 c 0,0.047 0.017,0.084 0.0474,0.118 0.0339,0.033 0.0712,0.047 0.1186,0.047 h 1.2767 c 0.0474,0 0.0846,-0.017 0.1185,-0.047 0.0339,-0.034 0.0474,-0.071 0.0474,-0.118 v -4.214 c 0,-0.424 0.1219,-0.764 0.3691,-1.02 0.2439,-0.256 0.5656,-0.388 0.9652,-0.388 0.3996,0 0.7179,0.132 0.9584,0.394 0.2404,0.263 0.3623,0.607 0.3623,1.028 v 4.196 c 0,0.048 0.017,0.085 0.0474,0.118 0.0339,0.034 0.0712,0.047 0.1186,0.047 h 1.2767 c 0.0474,0 0.0846,-0.016 0.1185,-0.047 0.0339,-0.033 0.0474,-0.07 0.0474,-0.118 v -4.53 c 0,-0.764 -0.2235,-1.367 -0.6739,-1.809 -0.4504,-0.441 -1.0498,-0.663 -1.7982,-0.663 m -8.2766,6.005 c -0.3421,0 -0.6232,-0.08 -0.8399,-0.242 -0.2167,-0.162 -0.3251,-0.387 -0.3251,-0.684 0,-0.34 0.1422,-0.603 0.4233,-0.788 0.2811,-0.185 0.6672,-0.276 1.1582,-0.276 h 1.165 c 0.0474,0 0.0711,0.023 0.0711,0.067 v 0.65 c 0,0.367 -0.1626,0.674 -0.4877,0.913 -0.3251,0.239 -0.7145,0.36 -1.1649,0.36 z m 0.3318,-6.005 c -0.8059,0 -1.4731,0.178 -2.0048,0.539 -0.5316,0.36 -0.8364,0.818 -0.9109,1.381 -0.0102,0.037 0,0.067 0.0338,0.091 0.0339,0.023 0.0711,0.04 0.1186,0.047 l 1.3478,0.165 c 0.1016,0.02 0.1659,-0.027 0.193,-0.138 0.0542,-0.222 0.1931,-0.394 0.4098,-0.519 0.2167,-0.125 0.5012,-0.185 0.8534,-0.185 0.4267,0 0.745,0.098 0.9584,0.296 0.2133,0.199 0.3183,0.475 0.3183,0.836 v 0.33 c 0,0.047 -0.0237,0.067 -0.0711,0.067 h -1.4867 c -0.9177,0 -1.6255,0.202 -2.1301,0.6 -0.5046,0.4 -0.7586,0.959 -0.7586,1.677 0,0.717 0.2235,1.212 0.6739,1.559 0.447,0.351 1.0194,0.526 1.7136,0.526 0.8602,0 1.5172,-0.249 1.9709,-0.745 0.017,-0.016 0.0373,-0.026 0.0542,-0.02 0.017,0.004 0.0271,0.02 0.0271,0.047 v 0.442 c 0,0.047 0.017,0.084 0.0474,0.118 0.0339,0.033 0.0711,0.047 0.1186,0.047 h 1.2767 c 0.0474,0 0.0846,-0.017 0.1185,-0.047 0.0339,-0.034 0.0474,-0.071 0.0474,-0.118 v -4.655 c 0,-0.452 -0.1219,-0.852 -0.3623,-1.209 -0.2405,-0.354 -0.5825,-0.634 -1.0262,-0.836 -0.4436,-0.202 -0.9583,-0.303 -1.5408,-0.303 m -7.2471,1.381 c 0.3691,0 0.6773,0.091 0.9245,0.276 0.2438,0.186 0.4098,0.442 0.4944,0.775 0.0373,0.121 0.0644,0.296 0.0847,0.525 0,0.048 -0.0237,0.068 -0.0711,0.068 h -2.8176 c -0.0542,0 -0.0745,-0.024 -0.0542,-0.068 0.017,-0.249 0.0542,-0.451 0.1118,-0.606 0.0914,-0.303 0.2506,-0.539 0.4775,-0.711 0.2269,-0.171 0.5113,-0.256 0.8534,-0.256 m 3.0817,1.466 c -0.2303,-1.897 -1.2598,-2.846 -3.0817,-2.846 -0.7214,0 -1.3411,0.185 -1.8524,0.559 -0.5148,0.374 -0.8636,0.882 -1.0499,1.525 -0.1117,0.331 -0.1659,0.765 -0.1659,1.297 0,0.883 0.105,1.573 0.3183,2.072 0.2303,0.579 0.5994,1.03 1.104,1.354 0.5046,0.323 1.1176,0.485 1.8389,0.485 0.5825,0 1.1142,-0.111 1.5883,-0.33 0.4775,-0.223 0.8601,-0.533 1.1446,-0.94 0.0542,-0.084 0.0406,-0.155 -0.0406,-0.222 l -0.8602,-0.704 c -0.0271,-0.027 -0.061,-0.041 -0.0982,-0.041 -0.0542,0 -0.1016,0.027 -0.1389,0.084 -0.3691,0.516 -0.8703,0.775 -1.5002,0.775 -0.8602,-0.01 -1.402,-0.343 -1.6255,-1.007 -0.0542,-0.111 -0.0982,-0.317 -0.1253,-0.62 0,-0.047 0.0237,-0.071 0.0711,-0.071 h 4.3449 c 0.1117,0 0.1659,-0.053 0.1659,-0.165 l 0.0136,-0.427 c 0,-0.287 -0.0203,-0.543 -0.0542,-0.775 m -9.5398,2.472 c -0.2506,0.388 -0.6197,0.58 -1.1107,0.58 -0.4538,0 -0.7993,-0.202 -1.0431,-0.607 -0.2303,-0.377 -0.3454,-0.929 -0.3454,-1.657 0,-0.727 0.105,-1.243 0.3183,-1.603 0.2405,-0.441 0.6028,-0.664 1.0837,-0.664 0.5283,0 0.9211,0.226 1.1819,0.677 0.2235,0.388 0.3319,0.917 0.3319,1.59 0,0.674 -0.1389,1.26 -0.4166,1.684 z m 1.805,-3.381 c -0.2032,-0.607 -0.5316,-1.082 -0.9854,-1.422 -0.4538,-0.34 -1.0092,-0.512 -1.6662,-0.512 -0.657,0 -1.1887,0.239 -1.5984,0.718 -0.017,0.027 -0.0373,0.037 -0.0542,0.027 -0.0203,-0.01 -0.0271,-0.027 -0.0271,-0.054 v -0.415 c 0,-0.047 -0.0169,-0.084 -0.0474,-0.117 -0.0339,-0.034 -0.0711,-0.048 -0.1185,-0.048 h -1.2767 c -0.0475,0 -0.0847,0.017 -0.1186,0.048 -0.0338,0.033 -0.0474,0.07 -0.0474,0.117 v 9.337 c 0,0.047 0.0169,0.084 0.0474,0.118 0.0339,0.03 0.0711,0.047 0.1186,0.047 h 1.2767 c 0.0474,0 0.0846,-0.017 0.1185,-0.047 0.0339,-0.034 0.0474,-0.071 0.0474,-0.118 v -2.998 c 0,-0.027 0.0102,-0.047 0.0271,-0.054 0.0203,-0.01 0.0372,-0.003 0.0542,0.014 0.3996,0.468 0.9245,0.704 1.5815,0.704 0.657,0 1.253,-0.172 1.7,-0.512 0.447,-0.34 0.7755,-0.815 0.9787,-1.421 0.1558,-0.469 0.237,-1.031 0.237,-1.685 0,-0.653 -0.0846,-1.256 -0.2506,-1.724 m -10.7182,3.964 c -0.3624,0 -0.6705,-0.097 -0.9245,-0.289 -0.254,-0.192 -0.4335,-0.465 -0.5351,-0.815 -0.0914,-0.324 -0.1388,-0.708 -0.1388,-1.159 0,-0.451 0.0474,-0.839 0.1388,-1.159 0.1118,-0.35 0.2912,-0.619 0.5418,-0.808 0.2506,-0.189 0.5453,-0.283 0.8873,-0.283 0.3624,0 0.6671,0.094 0.9177,0.283 0.2506,0.189 0.4267,0.458 0.5283,0.808 0.0915,0.276 0.1389,0.664 0.1389,1.159 0,0.468 -0.0474,0.855 -0.1389,1.159 -0.1117,0.35 -0.2912,0.623 -0.535,0.815 -0.2439,0.192 -0.5385,0.289 -0.8805,0.289 z m 0,1.381 c 0.7111,0 1.3275,-0.185 1.8456,-0.559 0.5182,-0.374 0.8839,-0.886 1.0972,-1.539 0.1592,-0.468 0.2371,-0.994 0.2371,-1.573 0,-0.579 -0.0847,-1.132 -0.2506,-1.573 -0.2133,-0.637 -0.5757,-1.132 -1.0905,-1.492 -0.5147,-0.36 -1.1243,-0.539 -1.8253,-0.539 -0.7416,0 -1.3749,0.179 -1.9032,0.539 -0.5283,0.36 -0.8974,0.862 -1.1108,1.505 -0.149,0.462 -0.2235,0.984 -0.2235,1.573 0,0.553 0.0779,1.078 0.2371,1.573 0.2133,0.654 0.5791,1.166 1.104,1.533 0.5215,0.367 1.1514,0.552 1.8829,0.552 z m -4.7919,-7.248 c -0.6942,0 -1.2361,0.3 -1.6255,0.896 -0.0203,0.027 -0.0339,0.04 -0.0474,0.034 -0.0136,-0.007 -0.0204,-0.027 -0.0204,-0.064 v -0.62 c 0,-0.047 -0.0169,-0.084 -0.0474,-0.118 -0.0338,-0.034 -0.0711,-0.047 -0.1185,-0.047 h -1.2767 c -0.0474,0 -0.0847,0.017 -0.1185,0.047 -0.0339,0.034 -0.0474,0.071 -0.0474,0.118 v 6.726 c 0,0.047 0.0169,0.084 0.0474,0.118 0.0338,0.034 0.0711,0.047 0.1185,0.047 h 1.2767 c 0.0474,0 0.0847,-0.017 0.1185,-0.047 0.0305,-0.034 0.0474,-0.071 0.0474,-0.118 v -3.907 c 0,-0.404 0.1287,-0.734 0.3895,-0.987 0.2574,-0.252 0.5825,-0.387 0.9719,-0.407 0.0644,-0.011 0.1592,-0.014 0.2777,-0.014 0.1863,0 0.3488,0.024 0.4877,0.067 0.1185,0.048 0.1862,0.014 0.193,-0.097 l 0.237,-1.243 c 0.0204,-0.101 -0.0101,-0.172 -0.0846,-0.209 -0.2235,-0.118 -0.4809,-0.178 -0.7789,-0.178 m -6.624,0.249 v 4.197 c 0,0.431 -0.1253,0.778 -0.3759,1.037 -0.2506,0.259 -0.5825,0.387 -0.999,0.387 -0.4166,0 -0.7247,-0.128 -0.9516,-0.387 -0.2269,-0.256 -0.3387,-0.603 -0.3387,-1.037 v -4.197 c 0,-0.047 -0.0169,-0.084 -0.0474,-0.118 -0.0305,-0.034 -0.0711,-0.047 -0.1185,-0.047 h -1.2767 c -0.0474,0 -0.0847,0.017 -0.1185,0.047 -0.0339,0.034 -0.0475,0.071 -0.0475,0.118 v 4.655 c 0,0.744 0.2371,1.32 0.7146,1.724 0.4775,0.404 1.0667,0.606 1.7711,0.606 0.7586,0 1.3275,-0.242 1.7068,-0.73 0.017,-0.027 0.0373,-0.037 0.0542,-0.027 0.0169,0.01 0.0271,0.027 0.0271,0.053 v 0.442 c 0,0.047 0.0169,0.084 0.0474,0.118 0.0305,0.033 0.0711,0.047 0.1185,0.047 h 1.2632 c 0.0474,0 0.0847,-0.017 0.1185,-0.047 0.0339,-0.031 0.0474,-0.071 0.0474,-0.118 v -6.727 c 0,-0.047 -0.0169,-0.084 -0.0474,-0.117 -0.0304,-0.034 -0.0711,-0.048 -0.1185,-0.048 h -1.2632 c -0.0474,0 -0.0846,0.017 -0.1185,0.048 -0.0339,0.03 -0.0474,0.07 -0.0474,0.117 m -5.6792,-1.559 v -1.0509 c 0,-0.0472 -0.0169,-0.0842 -0.0474,-0.1179 -0.0338,-0.0337 -0.0711,-0.0471 -0.1185,-0.0471 H 4.67506 c -0.04741,0 -0.08466,0.0168 -0.11852,0.0471 -0.03387,0.0337 -0.04742,0.0707 -0.04742,0.1179 v 9.3369 c 0,0.047 0.01694,0.084 0.04742,0.118 0.03386,0.033 0.07111,0.047 0.11852,0.047 h 6.24814 c 0.0474,0 0.0846,-0.017 0.1185,-0.047 0.0338,-0.034 0.0474,-0.071 0.0474,-0.118 v -1.051 c 0,-0.047 -0.0169,-0.084 -0.0474,-0.118 -0.0339,-0.034 -0.0711,-0.047 -0.1185,-0.047 H 6.18883 c -0.04741,0 -0.07112,-0.024 -0.07112,-0.068 v -2.664 c 0,-0.047 0.02371,-0.067 0.07112,-0.067 h 3.17992 c 0.04741,0 0.08466,-0.017 0.11853,-0.047 0.03386,-0.034 0.04741,-0.071 0.04741,-0.118 v -1.051 c 0,-0.047 -0.01694,-0.084 -0.04741,-0.118 -0.03387,-0.034 -0.07112,-0.047 -0.11853,-0.047 H 6.18883 c -0.04741,0 -0.07112,-0.024 -0.07112,-0.067 v -2.584 c 0,-0.047 0.02371,-0.071 0.07112,-0.071 h 4.73437 c 0.0474,0 0.0846,-0.016 0.1185,-0.047 0.0338,-0.033 0.0474,-0.07 0.0474,-0.118"
       fill="#d5d2b8"
       id="path170"
       inkscape:label="path170"
       style="fill:#ffffff;fill-opacity:1" />
  </g>
  <defs
     id="defs179">
    <mask
       id="mask0_200_47"
       style="mask-type:luminance"
       maskUnits="userSpaceOnUse"
       x="0"
       y="0"
       width="155"
       height="124">
      <path
         d="M154.995 0H0.00476837V124H154.995V0Z"
         fill="white"
         id="path163" />
    </mask>
    <clipPath
       clipPathUnits="userSpaceOnUse"
       id="clipPath353">
      <g
         id="g357">
        <rect
           width="155"
           height="124"
           fill="#ffffff"
           id="rect355"
           x="0"
           y="0" />
      </g>
    </clipPath>
  </defs>
</svg>
