<?xml version="1.0" encoding="utf-8"?>
<!-- Generator: Adobe Illustrator 21.0.1, SVG Export Plug-In . SVG Version: 6.00 Build 0)  -->
<svg version="1.1" id="Layer_1" xmlns="http://www.w3.org/2000/svg" xmlns:xlink="http://www.w3.org/1999/xlink" x="0px" y="0px"
	 width="448.5px" height="50px" viewBox="0 0 448.5 50" style="enable-background:new 0 0 448.5 50;" xml:space="preserve">
<style type="text/css">
	.st0{fill:#6F003B;}
</style>
<g id="Background_xA0_Image_1_">
</g>
<g id="latest_news">
	<g>
		<path class="st0" d="M1.6,2.3H6v41.2h22V48H1.6V2.3z"/>
		<path class="st0" d="M49.5,2.3h7.1L71.2,48h-4.5l-4.6-14.2H43.7L39.1,48h-4.5L49.5,2.3z M53,5.3l-7.8,24.1h15.6L53,5.3z"/>
		<path class="st0" d="M72.5,2.3H106v4.4H91.5V48h-4.4V6.6H72.5V2.3z"/>
		<path class="st0" d="M117.8,2.3h26.9v4.3h-22.5v14.9h16.7v4.4h-16.7v17.6h24.7V48h-29.1L117.8,2.3L117.8,2.3z"/>
		<path class="st0" d="M161.1,35.1c0.5,1.8,1.1,3.2,1.7,4.2c1,1.6,2.4,2.9,4.1,3.9c1.7,1,3.8,1.5,6.2,1.5c3.4,0,6.1-0.9,8-2.6
			c1.9-1.7,2.9-3.8,2.9-6.2c0-2.2-0.9-4-2.6-5.5c-1.3-1.1-4.1-2.3-8.1-3.5c-5.5-1.6-9.4-3.4-11.8-5.5c-2.4-2.1-3.5-4.6-3.5-7.7
			c0-3.4,1.3-6.2,3.9-8.7c2.6-2.4,6.1-3.6,10.3-3.6c2.6,0,5,0.5,7.3,1.4c2.3,1,4.2,2.4,5.8,4.3c1.1,1.3,1.9,3.1,2.5,5.2l-4.6,1.4
			c-0.8-2.7-2.1-4.8-4.1-6.2s-4.2-2.2-6.9-2.2c-2.8,0-5.1,0.8-6.8,2.3c-1.7,1.5-2.6,3.4-2.6,5.5c0,1.7,0.7,3.3,2.1,4.7
			c1.4,1.4,4.4,2.8,9.2,4.2c5.6,1.6,9.5,3.5,11.6,5.6c2.1,2.1,3.2,4.8,3.2,8.1c0,3.7-1.4,6.8-4.3,9.4c-2.9,2.6-6.7,3.9-11.5,3.9
			c-3,0-5.7-0.6-8.2-1.8c-2.5-1.2-4.5-2.8-6-4.9c-1.1-1.4-1.9-3.3-2.6-5.8L161.1,35.1z"/>
		<path class="st0" d="M198.2,2.3h33.5v4.4h-14.5V48h-4.4V6.6h-14.6V2.3z"/>
		<path class="st0" d="M264.5,1.8h9.6l18.9,31v-31h9V48h-9l-19.4-32.2V48h-9.1L264.5,1.8L264.5,1.8z"/>
		<path class="st0" d="M315.9,1.8h30.9v8H325V20h13.3v6.8H325V40h21.9v8h-30.9V1.8z"/>
		<path class="st0" d="M353.6,1.8h8.7l6.3,26.4l6.3-26.4h10.3l6.4,26.6l6.2-26.6h8.7L395.6,48h-7.1l-8.4-35.2L371.6,48h-7.1
			L353.6,1.8z"/>
		<path class="st0" d="M421.5,35.1c1.5,2.4,3,4,4.5,4.9c1.5,0.9,3.2,1.4,5.2,1.4c2.4,0,4.3-0.6,5.6-1.8s2-2.6,2-4.2
			c0-1.4-0.5-2.7-1.6-3.8c-1.1-1.1-3.5-2.1-7.3-3.1c-5.1-1.3-8.8-3-11-4.9c-2.8-2.5-4.1-5.5-4.1-9.1c0-3.9,1.4-7.1,4.1-9.6
			c2.8-2.5,6.5-3.8,11.3-3.8c2.7,0,5.2,0.5,7.3,1.4c2.1,0.9,4,2.1,5.4,3.5c1,0.9,1.9,2.2,2.9,3.9l-7.6,3.1c-1.3-1.8-2.6-3.2-3.9-4
			c-1.3-0.8-2.8-1.3-4.5-1.3c-2,0-3.7,0.6-4.9,1.7s-1.8,2.5-1.8,4.1c0,1.3,0.5,2.4,1.5,3.3c1,0.9,3.5,1.9,7.4,2.9c4,1,7,2.1,9,3.4
			c2,1.3,3.6,3,4.6,5.1c1,2.1,1.5,4.2,1.5,6.4c0,2.3-0.7,4.7-2,7c-1.3,2.4-3.2,4.2-5.8,5.4c-2.6,1.3-5.5,1.9-8.9,1.9
			c-3.2,0-5.9-0.5-8.2-1.6c-2.3-1.1-4.3-2.5-5.9-4.3c-1-1.1-2.1-2.7-3.2-4.8L421.5,35.1z"/>
	</g>
</g>
</svg>
