<?xml version="1.0" encoding="utf-8"?>
<!-- Generator: Adobe Illustrator 19.2.1, SVG Export Plug-In . SVG Version: 6.00 Build 0)  -->
<svg version="1.1" id="Layer_1" xmlns="http://www.w3.org/2000/svg" xmlns:xlink="http://www.w3.org/1999/xlink" x="0px" y="0px"
	 viewBox="0 0 42.8 47.9" style="enable-background:new 0 0 42.8 47.9;" xml:space="preserve">
<style type="text/css">
	.st0{fill:#36104F;}
</style>
<g>
	<rect y="0.2" class="st0" width="42.7" height="5.9"/>
	<rect y="9" class="st0" width="42.7" height="5.9"/>
	<rect y="17.9" class="st0" width="42.7" height="5.9"/>
	<rect y="26.8" class="st0" width="42.7" height="5.9"/>
</g>
<g>
	<path class="st0" d="M11.4,47.7v-5.3c0-0.9-0.2-1.4-1-1.4c-0.9,0-1.9,1.1-1.9,2.7v4H6.4v-5.3c0-0.8-0.2-1.4-1-1.4
		c-1,0-1.9,1.2-1.9,2.7v4H1.3v-8.3h2c0,0.4,0,1-0.1,1.5l0,0c0.5-1,1.5-1.7,2.8-1.7c1.5,0,2.1,0.9,2.3,1.7c0.4-0.8,1.3-1.7,2.7-1.7
		c1.6,0,2.5,0.9,2.5,2.8v5.7H11.4z"/>
	<path class="st0" d="M22.6,43.9h-5.2c0,1.6,0.8,2.3,2.3,2.3c0.8,0,1.7-0.2,2.4-0.5l0.2,1.7c-0.9,0.4-1.9,0.5-3,0.5
		c-2.7,0-4.1-1.3-4.1-4.3c0-2.6,1.4-4.4,3.9-4.4c2.4,0,3.5,1.7,3.5,3.7C22.7,43.2,22.7,43.6,22.6,43.9z M19.1,40.8
		c-0.9,0-1.5,0.7-1.6,1.7h3.1C20.6,41.4,20,40.8,19.1,40.8z"/>
	<path class="st0" d="M29.6,47.7v-5.3c0-0.9-0.2-1.4-1-1.4c-1.1,0-1.9,1.2-1.9,2.7v4h-2.1v-8.3h2c0,0.4,0,1-0.1,1.5l0,0
		c0.5-1,1.5-1.7,2.8-1.7c1.9,0,2.5,1.2,2.5,2.7v5.9h-2.2C29.6,47.8,29.6,47.7,29.6,47.7z"/>
	<path class="st0" d="M39.3,47.7c0-0.4,0-1,0.1-1.5l0,0c-0.5,1-1.5,1.7-2.8,1.7c-1.9,0-2.5-1.2-2.5-2.7v-5.9h2.1v5.3
		c0,0.9,0.2,1.4,1,1.4c1.1,0,1.9-1.2,1.9-2.7v-4h2.1v8.3h-1.9C39.3,47.6,39.3,47.7,39.3,47.7z"/>
</g>
</svg>
